SplineFontDB: 3.2
FontName: Maus Dialogue
FullName: Maus Dialogue
FamilyName: Maus Dialogue
Weight: Medium
Copyright: Originally traced with Glyphtracer
UComments: "No comments"
Version: 001.000
ItalicAngle: 0
UnderlinePosition: -100
UnderlineWidth: 50
Ascent: 1638
Descent: 410
InvalidEm: 0
LayerCount: 2
Layer: 0 0 "Back" 1
Layer: 1 0 "Fore" 0
XUID: [1021 397 1238052781 15881202]
StyleMap: 0x0000
FSType: 0
OS2Version: 0
OS2_WeightWidthSlopeOnly: 0
OS2_UseTypoMetrics: 1
CreationTime: 1270926697
ModificationTime: 1675544984
OS2TypoAscent: 0
OS2TypoAOffset: 1
OS2TypoDescent: 0
OS2TypoDOffset: 1
OS2TypoLinegap: 184
OS2WinAscent: 0
OS2WinAOffset: 1
OS2WinDescent: 0
OS2WinDOffset: 1
HheadAscent: 0
HheadAOffset: 1
HheadDescent: 0
HheadDOffset: 1
OS2Vendor: 'PfEd'
DEI: 91125
Encoding: UnicodeBmp
UnicodeInterp: none
NameList: Adobe Glyph List
DisplaySize: -36
AntiAlias: 1
FitToEm: 1
WidthSeparation: 50
WinInfo: 0 25 17
Grid
-2048 1112 m 0
 4096 1112 l 1024
EndSplineSet
BeginChars: 65536 83

StartChar: a
Encoding: 97 97 0
Width: 661
VWidth: 0
Flags: HW
LayerCount: 2
Fore
SplineSet
236.30859375 766.921875 m 4
 264.01171875 772.858398438 314.470703125 774.836914062 348.110351562 773.84765625 c 4
 403.516601562 770.879882812 415.389648438 765.932617188 444.08203125 738.229492188 c 4
 498.499023438 684.801757812 533.126953125 579.92578125 581.607421875 318.725585938 c 4
 591.501953125 270.245117188 607.33203125 203.956054688 617.225585938 173.284179688 c 4
 643.939453125 93.1435546875 642.950195312 61.482421875 611.290039062 36.748046875 c 4
 571.713867188 5.0869140625 541.04296875 10.0341796875 517.296875 50.599609375 c 4
 505.424804688 69.3974609375 492.5625 85.228515625 488.604492188 85.228515625 c 4
 483.657226562 85.228515625 456.944335938 73.35546875 429.241210938 58.5146484375 c 4
 326.34375 5.0869140625 179.913085938 28.8330078125 92.8466796875 113.920898438 c 4
 36.4501953125 167.34765625 18.6416015625 218.796875 26.556640625 307.841796875 c 4
 36.4501953125 442.400390625 120.548828125 521.551757812 268.958984375 536.392578125 c 4
 301.608398438 540.350585938 334.258789062 546.287109375 340.1953125 550.244140625 c 4
 357.014648438 560.138671875 344.15234375 608.619140625 324.365234375 616.534179688 c 4
 315.459960938 619.501953125 264.01171875 614.5546875 209.594726562 604.661132812 c 6
 109.666015625 585.862304688 l 5
 86.91015625 613.565429688 l 6
 61.185546875 643.247070312 55.2490234375 699.643554688 76.0263671875 715.473632812 c 4
 91.8564453125 728.3359375 173.9765625 755.048828125 236.30859375 766.921875 c 4
426.272460938 347.41796875 m 4
 413.41015625 396.887695312 l 5
 358.994140625 398.8671875 l 6
 293.693359375 399.856445312 238.287109375 389.961914062 216.520507812 372.153320312 c 4
 177.934570312 339.502929688 161.114257812 272.223632812 181.891601562 232.6484375 c 4
 211.573242188 178.231445312 321.396484375 165.369140625 394.612304688 207.913085938 c 4
 445.071289062 237.594726562 449.028320312 257.3828125 426.272460938 347.41796875 c 4
EndSplineSet
EndChar

StartChar: b
Encoding: 98 98 1
Width: 543
VWidth: 0
Flags: HW
LayerCount: 2
Fore
SplineSet
63.013671875 987.451171875 m 0
 103.579101562 1008.22851562 147.112304688 1010.20703125 158.985351562 993.387695312 c 0
 162.943359375 986.461914062 168.879882812 923.140625 171.84765625 851.904296875 c 2
 176.794921875 723.282226562 l 1
 241.10546875 716.356445312 l 2
 357.854492188 704.484375 452.8359375 648.088867188 493.401367188 565.96875 c 0
 514.178710938 524.4140625 518.135742188 502.647460938 518.135742188 427.453125 c 0
 518.135742188 324.555664062 501.31640625 277.065429688 431.069335938 185.05078125 c 0
 357.854492188 88.0908203125 289.5859375 46.5361328125 169.869140625 25.7587890625 c 0
 94.6748046875 12.896484375 71.9189453125 19.822265625 48.1728515625 65.333984375 c 0
 29.375 101.94140625 29.375 123.708984375 49.162109375 145.475585938 c 0
 62.0244140625 160.31640625 63.013671875 178.125 54.109375 279.043945312 c 0
 31.353515625 552.1171875 22.44921875 731.197265625 25.4169921875 846.95703125 c 2
 28.384765625 970.631835938 l 1
 63.013671875 987.451171875 l 0
327.182617188 546.180664062 m 0
 309.374023438 565.96875 292.553710938 573.883789062 253.967773438 576.8515625 c 0
 220.328125 580.809570312 201.529296875 577.841796875 196.58203125 569.92578125 c 0
 188.666992188 558.053710938 197.572265625 324.555664062 207.465820312 246.393554688 c 0
 211.423828125 222.6484375 218.349609375 203.849609375 223.295898438 203.849609375 c 0
 245.0625 203.849609375 319.267578125 267.170898438 339.055664062 302.7890625 c 0
 381.599609375 377.983398438 375.663085938 489.78515625 327.182617188 546.180664062 c 0
EndSplineSet
EndChar

StartChar: c
Encoding: 99 99 2
Width: 536
VWidth: 0
Flags: HW
LayerCount: 2
Fore
SplineSet
205.264648438 666.569335938 m 0
 311.129882812 685.3671875 432.826171875 635.897460938 482.295898438 555.756835938 c 0
 509.009765625 512.22265625 506.041015625 486.499023438 470.422851562 456.817382812 c 0
 428.868164062 422.188476562 411.059570312 424.166992188 362.579101562 470.66796875 c 0
 314.098632812 517.169921875 279.469726562 529.04296875 244.840820312 509.254882812 c 0
 216.1484375 493.424804688 186.465820312 439.0078125 177.561523438 387.559570312 c 0
 168.657226562 333.142578125 183.498046875 247.065429688 207.243164062 211.446289062 c 0
 227.03125 182.75390625 234.946289062 178.796875 281.448242188 175.828125 c 0
 317.06640625 173.849609375 346.748046875 178.796875 378.409179688 192.6484375 c 0
 465.475585938 231.234375 510.98828125 212.436523438 510.98828125 138.231445312 c 0
 510.98828125 99.64453125 507.030273438 92.71875 474.380859375 70.9521484375 c 0
 436.783203125 46.2177734375 338.833007812 15.5458984375 298.267578125 15.5458984375 c 0
 286.395507812 15.5458984375 253.745117188 22.4716796875 225.052734375 31.376953125 c 0
 65.759765625 78.8671875 -15.3701171875 289.609375 44.982421875 505.296875 c 0
 68.728515625 591.375 130.0703125 653.70703125 205.264648438 666.569335938 c 0
EndSplineSet
EndChar

StartChar: d
Encoding: 100 100 3
Width: 664
VWidth: 0
Flags: HW
LayerCount: 2
Fore
SplineSet
368.055302013 1372.29221477 m 0
 382.896241611 1390.10134228 459.079731544 1389.11194631 474.910067114 1370.31342282 c 0
 501.623758389 1337.6633557 529.326845638 460.069127517 503.602550336 444.238791946 c 0
 481.835838926 430.387248322 339.362818792 434.344832215 263.179328859 450.175167785 c 0
 182.04885906 466.994899329 125.653288591 498.65557047 75.1940939597 555.05114094 c 0
 26.7136912752 607.489127517 9.89395973154 650.033154362 2.96818791946 732.153020134 c 0
 -7.91516778523 865.72147651 63.3213422819 1005.22630872 171.165503356 1059.64308725 c 0
 207.773154362 1078.44161074 295.829395973 1088.33557047 336.394630872 1077.45221477 c 0
 349.256778523 1074.48402685 351.23557047 1095.26134228 354.203758389 1215.96765101 c 0
 355.193154362 1301.0557047 361.129530201 1364.37704698 368.055302013 1372.29221477 c 0
347.277986577 914.201879195 m 0
 344.309798658 916.180671141 325.511275168 921.127651007 306.712751678 924.095838926 c 0
 190.953422819 943.883758389 107.844161074 788.548590604 173.144295302 676.746845638 c 0
 202.826174497 626.287651007 284.946040268 580.775436242 338.373422819 585.722416107 c 2
 371.023489933 588.690604027 l 1
 370.03409396 643.10738255 l 2
 369.044697987 728.195436242 354.203758389 910.244295302 347.277986577 914.201879195 c 0
EndSplineSet
Validated: 33
EndChar

StartChar: e
Encoding: 101 101 4
Width: 684
VWidth: 0
Flags: HW
LayerCount: 2
Fore
SplineSet
152.3671875 685.26171875 m 0
 185.016601562 704.059570312 281.977539062 701.091796875 324.521484375 679.325195312 c 0
 400.705078125 640.73828125 465.015625 551.693359375 465.015625 485.403320312 c 0
 465.015625 390.420898438 360.139648438 289.502929688 225.58203125 252.895507812 c 0
 149.3984375 232.118164062 168.197265625 185.616210938 260.2109375 165.828125 c 0
 313.638671875 154.9453125 361.129882812 162.860351562 420.493164062 193.53125 c 0
 468.973632812 218.266601562 475.899414062 218.266601562 508.549804688 192.541992188 c 0
 528.337890625 176.711914062 534.2734375 163.849609375 534.2734375 133.178710938 c 0
 534.2734375 79.7509765625 504.591796875 52.0478515625 420.493164062 26.3232421875 c 0
 252.295898438 -26.1142578125 107.84375 25.333984375 44.5224609375 158.90234375 c 0
 6.92578125 239.043945312 -5.9365234375 334.025390625 8.904296875 419.114257812 c 0
 28.6923828125 529.92578125 94.982421875 652.611328125 152.3671875 685.26171875 c 0
279.009765625 523 m 0
 259.221679688 540.809570312 230.529296875 544.767578125 210.741210938 531.905273438 c 0
 186.99609375 517.064453125 142.47265625 391.411132812 161.271484375 391.411132812 c 0
 172.155273438 391.411132812 272.083984375 431.975585938 282.966796875 441.870117188 c 0
 302.754882812 457.700195312 299.787109375 504.202148438 279.009765625 523 c 0
EndSplineSet
EndChar

StartChar: g
Encoding: 103 103 5
Width: 940
VWidth: 0
Flags: HW
LayerCount: 2
Fore
SplineSet
755.479492188 1052.60351562 m 0
 796.043945312 1080.30664062 836.609375 1103.06347656 845.513671875 1103.06347656 c 0
 854.418945312 1103.06347656 874.206054688 1090.20117188 889.047851562 1074.37011719 c 0
 910.814453125 1051.61425781 915.760742188 1038.75195312 912.79296875 1010.05957031 c 0
 909.825195312 969.495117188 894.983398438 958.611328125 786.150390625 912.109375 c 2
 732.72265625 889.353515625 l 1
 790.107421875 846.809570312 l 2
 865.301757812 790.4140625 898.94140625 724.124023438 884.100585938 658.82421875 c 0
 871.23828125 601.439453125 854.418945312 570.767578125 810.884765625 526.245117188 c 0
 774.27734375 488.6484375 710.956054688 452.041015625 645.65625 431.263671875 c 0
 624.87890625 424.337890625 608.05859375 415.432617188 608.05859375 411.475585938 c 0
 608.05859375 407.517578125 643.677734375 399.602539062 687.2109375 392.676757812 c 0
 783.181640625 378.825195312 857.38671875 348.154296875 890.037109375 309.567382812 c 0
 909.825195312 285.822265625 914.771484375 269.001953125 914.771484375 225.46875 c 0
 914.771484375 177.977539062 909.825195312 164.125976562 883.111328125 128.5078125 c 0
 780.213867188 -5.060546875 560.568359375 -91.1376953125 295.41015625 -101.032226562 c 0
 169.756835938 -105.978515625 151.947265625 -104.989257812 110.392578125 -86.1904296875 c 0
 72.7958984375 -69.37109375 58.9443359375 -56.5087890625 44.103515625 -22.869140625 c 0
 20.357421875 28.5791015625 19.3681640625 55.29296875 39.15625 119.603515625 c 0
 58.9443359375 185.892578125 105.446289062 254.161132812 151.947265625 284.833007812 c 0
 198.44921875 316.493164062 286.504882812 346.174804688 388.413085938 367.94140625 c 0
 430.95703125 375.857421875 475.479492188 388.71875 489.331054688 395.64453125 c 2
 514.06640625 408.506835938 l 1
 484.384765625 415.432617188 l 2
 330.0390625 450.061523438 241.982421875 549.000976562 241.982421875 688.505859375 c 0
 241.982421875 725.114257812 248.908203125 769.63671875 256.823242188 788.435546875 c 0
 272.653320312 827.021484375 329.049804688 881.438476562 369.614257812 896.279296875 c 0
 416.116210938 914.088867188 527.91796875 931.897460938 540.780273438 923.982421875 c 0
 567.494140625 907.163085938 594.20703125 916.067382812 637.741210938 958.611328125 c 0
 662.475585938 982.356445312 714.9140625 1024.90039062 755.479492188 1052.60351562 c 0
690.178710938 764.689453125 m 0
 642.6875 790.4140625 516.044921875 802.287109375 459.649414062 785.466796875 c 0
 385.4453125 763.700195312 356.751953125 681.580078125 400.286132812 611.333007812 c 0
 428.978515625 563.841796875 451.734375 555.926757812 547.706054688 560.874023438 c 0
 688.200195312 567.799804688 761.415039062 622.216796875 741.627929688 703.346679688 c 0
 733.711914062 734.018554688 722.829101562 746.880859375 690.178710938 764.689453125 c 0
739.6484375 247.235351562 m 0
 706.008789062 269.001953125 693.147460938 271.970703125 613.005859375 270.981445312 c 0
 450.745117188 269.001953125 348.836914062 245.256835938 253.85546875 188.861328125 c 0
 198.44921875 157.200195312 172.724609375 122.571289062 172.724609375 80.02734375 c 0
 172.724609375 27.58984375 268.696289062 1.865234375 382.4765625 23.6318359375 c 0
 462.618164062 38.47265625 589.260742188 80.02734375 652.58203125 110.69921875 c 0
 700.073242188 134.444335938 776.255859375 197.765625 776.255859375 214.5859375 c 0
 776.255859375 218.54296875 759.436523438 233.383789062 739.6484375 247.235351562 c 0
EndSplineSet
EndChar

StartChar: h
Encoding: 104 104 6
Width: 592
VWidth: 0
Flags: HW
LayerCount: 2
Fore
SplineSet
27.251953125 988.899414062 m 0
 32.19921875 1000.77246094 46.05078125 1004.73046875 80.6796875 1004.73046875 c 0
 106.404296875 1004.73046875 133.1171875 1000.77246094 140.04296875 996.815429688 c 0
 159.831054688 983.953125 172.693359375 905.791015625 172.693359375 786.073242188 c 0
 172.693359375 722.751953125 175.661132812 656.462890625 178.629882812 639.643554688 c 2
 185.555664062 607.982421875 l 1
 266.685546875 614.908203125 l 2
 382.4453125 623.8125 431.915039062 614.908203125 469.51171875 576.321289062 c 0
 545.6953125 499.1484375 570.430664062 401.198242188 566.47265625 185.510742188 c 2
 563.504882812 30.1748046875 l 1
 535.801757812 17.3134765625 l 2
 504.140625 1.482421875 445.766601562 16.3232421875 435.873046875 41.05859375 c 0
 432.904296875 49.962890625 429.936523438 117.2421875 429.936523438 191.446289062 c 0
 429.936523438 348.760742188 422.021484375 386.357421875 379.477539062 426.922851562 c 0
 352.763671875 452.647460938 342.869140625 455.615234375 284.495117188 455.615234375 c 0
 190.502929688 454.625976562 190.502929688 455.615234375 198.41796875 236.958984375 c 0
 202.375 139.008789062 202.375 46.005859375 198.41796875 32.154296875 c 0
 192.481445312 8.408203125 187.534179688 5.4404296875 149.9375 5.4404296875 c 0
 116.297851562 5.4404296875 101.45703125 11.376953125 82.658203125 31.1650390625 c 0
 59.90234375 55.8994140625 58.9130859375 64.8037109375 47.0400390625 280.4921875 c 0
 31.2099609375 605.014648438 20.326171875 970.1015625 27.251953125 988.899414062 c 0
EndSplineSet
EndChar

StartChar: i
Encoding: 105 105 7
Width: 217
VWidth: 0
Flags: HW
LayerCount: 2
Fore
SplineSet
55.296875 1023.06933594 m 4
 83 1036.92089844 156.21484375 1031.97363281 176.9921875 1015.15429688 c 4
 198.758789062 997.345703125 195.791015625 934.0234375 172.044921875 908.299804688 c 4
 142.36328125 876.638671875 108.723632812 871.692382812 71.126953125 893.458984375 c 4
 17.69921875 924.129882812 8.794921875 999.32421875 55.296875 1023.06933594 c 4
73.10546875 715.3671875 m 4
 125.543945312 742.081054688 166.109375 725.26171875 181.939453125 670.844726562 c 4
 187.875976562 649.078125 191.833007812 511.551757812 191.833007812 335.439453125 c 6
 191.833007812 36.6416015625 l 5
 158.193359375 29.7158203125 l 6
 137.416015625 26.748046875 113.670898438 28.7265625 95.8623046875 37.630859375 c 6
 68.1591796875 50.4931640625 l 5
 56.2861328125 273.107421875 l 6
 49.3603515625 395.79296875 44.4130859375 542.22265625 46.3916015625 599.608398438 c 4
 48.37109375 698.547851562 49.3603515625 703.495117188 73.10546875 715.3671875 c 4
EndSplineSet
EndChar

StartChar: j
Encoding: 106 106 8
Width: 425
VWidth: 0
Flags: HW
LayerCount: 2
Fore
SplineSet
243.765625 966.038085938 m 4
 260.584960938 982.857421875 272.458007812 985.825195312 306.09765625 981.868164062 c 4
 376.344726562 971.973632812 399.100585938 920.525390625 361.502929688 859.182617188 c 4
 326.875 802.787109375 261.57421875 803.776367188 236.83984375 862.151367188 c 4
 217.051757812 908.65234375 220.01953125 942.291992188 243.765625 966.038085938 c 4
295.213867188 621.727539062 m 4
 367.439453125 630.6328125 371.397460938 629.643554688 383.270507812 601.940429688 c 4
 399.100585938 560.385742188 407.015625 -208.375 391.185546875 -255.866210938 c 4
 345.672851562 -393.392578125 162.634765625 -442.862304688 58.748046875 -345.901367188 c 4
 19.1728515625 -308.3046875 14.2255859375 -267.739257812 45.8857421875 -228.163085938 c 4
 72.599609375 -194.5234375 101.291992188 -195.512695312 149.772460938 -232.12109375 c 4
 196.274414062 -267.739257812 218.041015625 -268.728515625 236.83984375 -239.046875 c 4
 267.510742188 -192.544921875 270.478515625 -135.16015625 259.595703125 196.288085938 c 4
 253.659179688 377.346679688 252.669921875 545.543945312 256.626953125 571.268554688 c 4
 263.552734375 613.8125 265.532226562 617.770507812 295.213867188 621.727539062 c 4
EndSplineSet
EndChar

StartChar: k
Encoding: 107 107 9
Width: 618
VWidth: 0
Flags: HW
LayerCount: 2
Fore
SplineSet
58.9091796875 1077.37988281 m 4
 72.759765625 1079.359375 99.4736328125 1082.32714844 119.26171875 1083.31640625 c 6
 155.869140625 1084.30566406 l 5
 161.805664062 1022.96386719 l 6
 164.774414062 988.334960938 170.7109375 874.553710938 173.678710938 770.66796875 c 4
 177.635742188 665.791992188 182.583007812 579.713867188 185.551757812 579.713867188 c 4
 188.51953125 579.713867188 213.254882812 598.512695312 240.958007812 622.2578125 c 4
 359.685546875 721.197265625 439.826171875 768.688476562 469.5078125 757.805664062 c 4
 498.200195312 746.921875 527.8828125 687.55859375 519.966796875 657.875976562 c 4
 516.009765625 643.03515625 464.561523438 596.534179688 379.47265625 530.244140625 c 4
 305.268554688 472.859375 242.936523438 422.400390625 239.967773438 418.442382812 c 4
 231.063476562 403.6015625 279.543945312 361.057617188 431.911132812 251.234375 c 4
 588.235351562 140.421875 602.086914062 123.602539062 589.224609375 70.1748046875 c 4
 580.3203125 34.556640625 547.669921875 4.875 526.892578125 12.7900390625 c 4
 501.168945312 21.6943359375 222.159179688 210.668945312 207.318359375 228.478515625 c 4
 183.572265625 257.170898438 177.635742188 242.330078125 177.635742188 148.337890625 c 4
 177.635742188 25.65234375 171.700195312 15.7587890625 104.420898438 15.7587890625 c 4
 62.8662109375 15.7587890625 50.00390625 19.7158203125 44.0673828125 33.5673828125 c 4
 35.1630859375 55.333984375 19.3330078125 1057.59277344 27.248046875 1066.49707031 c 4
 31.2060546875 1069.46484375 45.0576171875 1074.41210938 58.9091796875 1077.37988281 c 4
EndSplineSet
EndChar

StartChar: l
Encoding: 108 108 10
Width: 280
VWidth: 0
Flags: HW
LayerCount: 2
Fore
SplineSet
48.724609375 1091.33789062 m 0
 62.576171875 1098.26367188 89.2900390625 1104.20019531 109.078125 1104.20019531 c 0
 139.749023438 1104.20019531 146.674804688 1099.25292969 156.569335938 1076.49707031 c 0
 173.388671875 1034.94238281 187.240234375 830.137695312 194.166015625 502.647460938 c 2
 200.102539062 212.75390625 l 1
 227.805664062 171.19921875 l 2
 261.4453125 120.740234375 264.413085938 80.1748046875 234.731445312 48.5146484375 c 0
 202.081054688 13.8857421875 166.462890625 18.8330078125 124.908203125 64.3447265625 c 0
 79.396484375 114.803710938 58.619140625 184.061523438 52.6826171875 302.7890625 c 0
 48.724609375 385.8984375 27.947265625 936.9921875 24.9794921875 1039.88964844 c 0
 23.990234375 1071.54980469 27.947265625 1080.45410156 48.724609375 1091.33789062 c 0
EndSplineSet
EndChar

StartChar: m
Encoding: 109 109 11
Width: 930
VWidth: 0
Flags: HW
LayerCount: 2
Fore
SplineSet
30.326171875 662.611328125 m 4
 39.2314453125 683.388671875 47.146484375 688.3359375 76.828125 688.3359375 c 4
 116.404296875 688.3359375 169.831054688 644.801757812 169.831054688 611.163085938 c 4
 169.831054688 581.48046875 177.74609375 580.491210938 228.206054688 601.268554688 c 4
 304.388671875 633.918945312 354.848632812 621.056640625 421.137695312 553.77734375 c 4
 477.533203125 495.403320312 476.543945312 495.403320312 506.225585938 554.767578125 c 4
 527.002929688 597.311523438 597.25 632.9296875 655.625 630.950195312 c 4
 746.649414062 628.971679688 809.970703125 571.586914062 842.620117188 462.752929688 c 4
 861.418945312 397.453125 889.122070312 223.319335938 899.015625 93.708984375 c 6
 904.952148438 27.4189453125 l 5
 868.344726562 15.5458984375 l 6
 815.907226562 -1.2734375 785.235351562 9.6103515625 767.426757812 50.1748046875 c 4
 759.51171875 68.9736328125 742.69140625 145.157226562 729.829101562 220.3515625 c 4
 700.147460938 383.6015625 679.370117188 456.817382812 659.58203125 464.732421875 c 4
 603.186523438 485.509765625 563.611328125 406.357421875 536.897460938 218.372070312 c 6
 520.077148438 99.64453125 l 5
 487.427734375 96.6767578125 l 6
 424.106445312 90.740234375 409.264648438 99.64453125 402.338867188 152.083007812 c 4
 389.477539062 253.991210938 365.731445312 356.887695312 346.93359375 392.505859375 c 4
 312.3046875 461.763671875 260.85546875 478.583984375 212.375 437.029296875 c 6
 184.671875 413.283203125 l 5
 179.725585938 217.3828125 l 5
 174.778320312 21.482421875 l 5
 149.053710938 15.5458984375 l 6
 114.424804688 5.65234375 59.0185546875 25.4404296875 45.1669921875 52.154296875 c 4
 30.326171875 82.8251953125 17.4638671875 626.993164062 30.326171875 662.611328125 c 4
EndSplineSet
EndChar

StartChar: n
Encoding: 110 110 12
Width: 589
VWidth: 0
Flags: HW
LayerCount: 2
Fore
SplineSet
52.4892578125 711.940429688 m 4
 115.810546875 735.685546875 161.323242188 697.098632812 161.323242188 618.936523438 c 4
 161.323242188 603.106445312 163.301757812 590.244140625 165.280273438 590.244140625 c 4
 167.259765625 590.244140625 197.930664062 606.07421875 234.538085938 624.873046875 c 4
 311.7109375 664.44921875 361.180664062 669.395507812 416.586914062 640.703125 c 4
 500.685546875 598.159179688 523.442382812 542.752929688 537.293945312 357.736328125 c 4
 543.229492188 287.489257812 552.134765625 187.560546875 558.071289062 137.100585938 c 4
 570.932617188 33.21484375 566.975585938 21.341796875 512.55859375 10.4580078125 c 4
 472.982421875 3.5322265625 432.41796875 34.2041015625 418.56640625 83.673828125 c 4
 412.629882812 103.461914062 403.724609375 191.517578125 398.778320312 278.584960938 c 4
 388.883789062 456.67578125 377.01171875 511.092773438 345.350585938 511.092773438 c 4
 311.7109375 511.092773438 194.962890625 419.079101562 187.046875 386.428710938 c 4
 183.08984375 370.598632812 178.142578125 288.478515625 174.185546875 204.379882812 c 4
 171.216796875 120.28125 165.280273438 43.1083984375 160.333984375 34.2041015625 c 4
 150.439453125 15.4052734375 94.0439453125 1.5537109375 63.373046875 11.447265625 c 4
 52.4892578125 14.416015625 39.626953125 31.2353515625 33.69140625 49.044921875 c 4
 23.796875 83.673828125 20.8291015625 681.268554688 31.7119140625 696.109375 c 4
 34.6806640625 702.045898438 44.57421875 708.971679688 52.4892578125 711.940429688 c 4
EndSplineSet
EndChar

StartChar: o
Encoding: 111 111 13
Width: 604
VWidth: 0
Flags: HW
LayerCount: 2
Fore
SplineSet
187.389648438 667.459960938 m 4
 240.817382812 686.2578125 343.71484375 687.247070312 387.248046875 668.44921875 c 4
 434.739257812 648.661132812 534.66796875 550.7109375 559.40234375 501.241210938 c 4
 575.233398438 467.6015625 579.190429688 439.8984375 579.190429688 357.778320312 c 4
 579.190429688 191.560546875 536.646484375 94.599609375 440.674804688 40.1826171875 c 4
 376.364257812 4.564453125 268.520507812 5.5537109375 197.284179688 42.1611328125 c 4
 129.015625 77.779296875 58.7685546875 157.920898438 39.9697265625 221.2421875 c 4
 18.203125 296.436523438 20.181640625 488.37890625 43.927734375 540.817382812 c 4
 65.6943359375 589.296875 131.983398438 647.671875 187.389648438 667.459960938 c 4
354.59765625 514.103515625 m 4
 302.16015625 549.721679688 260.60546875 552.689453125 218.061523438 526.965820312 c 4
 166.612304688 495.3046875 158.697265625 478.485351562 159.686523438 407.248046875 c 4
 160.67578125 314.245117188 170.5703125 272.690429688 200.251953125 238.061523438 c 4
 272.477539062 151.984375 368.44921875 159.899414062 410.00390625 256.860351562 c 4
 459.473632812 373.609375 441.665039062 456.717773438 354.59765625 514.103515625 c 4
EndSplineSet
EndChar

StartChar: p
Encoding: 112 112 14
Width: 574
VWidth: 0
Flags: HW
LayerCount: 2
Fore
SplineSet
104.766601562 603.671875 m 0
 176.00390625 623.459960938 297.69921875 623.459960938 352.116210938 604.661132812 c 0
 413.458984375 582.89453125 492.610351562 526.499023438 523.28125 481.975585938 c 0
 547.02734375 447.346679688 549.005859375 438.442382812 549.005859375 331.587890625 c 0
 549.005859375 233.637695312 546.038085938 211.87109375 525.260742188 168.337890625 c 0
 494.588867188 102.047851562 432.256835938 49.6103515625 353.10546875 25.8642578125 c 0
 318.4765625 14.9814453125 278.900390625 6.076171875 266.0390625 6.076171875 c 2
 242.29296875 6.076171875 l 1
 242.29296875 -176.961914062 l 1
 242.29296875 -360 l 1
 178.971679688 -360 l 2
 102.788085938 -360 107.735351562 -372.862304688 98.8310546875 -162.12109375 c 0
 88.9365234375 77.3134765625 54.3076171875 442.400390625 38.4775390625 473.071289062 c 0
 20.66796875 506.7109375 20.66796875 564.095703125 37.48828125 578.936523438 c 0
 44.4140625 584.873046875 75.0849609375 595.756835938 104.766601562 603.671875 c 0
346.1796875 441.411132812 m 0
 320.455078125 454.272460938 279.890625 466.145507812 256.14453125 469.114257812 c 2
 212.611328125 474.060546875 l 1
 213.600585938 381.057617188 l 2
 214.58984375 329.609375 217.55859375 257.3828125 221.515625 218.796875 c 0
 227.452148438 151.517578125 228.44140625 149.5390625 252.1875 152.506835938 c 0
 295.720703125 158.443359375 359.041992188 191.09375 374.872070312 215.828125 c 0
 383.776367188 228.690429688 397.627929688 269.255859375 406.533203125 305.86328125 c 0
 421.374023438 366.216796875 421.374023438 373.142578125 407.522460938 395.8984375 c 0
 398.6171875 408.760742188 370.915039062 429.538085938 346.1796875 441.411132812 c 0
EndSplineSet
EndChar

StartChar: q
Encoding: 113 113 15
Width: 698
VWidth: 0
Flags: HW
LayerCount: 2
Fore
SplineSet
227.798828125 670.067382812 m 0
 291.12109375 688.866210938 409.84765625 673.03515625 481.083984375 636.427734375 c 0
 520.66015625 615.650390625 577.056640625 550.350585938 605.748046875 491.975585938 c 0
 640.376953125 422.717773438 642.35546875 315.86328125 610.6953125 233.743164062 c 2
 586.94921875 169.432617188 l 1
 630.482421875 127.877929688 l 2
 666.1015625 92.259765625 673.02734375 80.3876953125 673.02734375 46.748046875 c 0
 673.02734375 16.076171875 667.091796875 3.21484375 647.302734375 -12.6162109375 c 0
 606.73828125 -44.2763671875 584.970703125 -38.33984375 532.533203125 17.0654296875 c 2
 486.03125 66.5361328125 l 1
 408.859375 40.8115234375 l 2
 350.484375 20.0341796875 320.802734375 15.0869140625 285.18359375 19.044921875 c 0
 193.169921875 29.927734375 100.166015625 97.20703125 51.6875 189.220703125 c 0
 26.951171875 234.733398438 24.97265625 248.584960938 24.97265625 347.524414062 c 0
 25.962890625 439.538085938 28.9296875 464.272460938 47.728515625 505.827148438 c 0
 84.3359375 583.990234375 152.60546875 647.311523438 227.798828125 670.067382812 c 0
413.8046875 501.870117188 m 0
 393.02734375 516.7109375 364.3359375 525.615234375 326.73828125 528.583984375 c 0
 277.26953125 532.541015625 267.375 529.573242188 238.681640625 504.837890625 c 0
 170.4140625 447.453125 148.646484375 333.672851562 188.22265625 245.616210938 c 0
 210.978515625 195.157226562 251.544921875 174.379882812 326.73828125 174.379882812 c 0
 375.21875 174.379882812 390.060546875 185.263671875 363.345703125 201.09375 c 0
 355.431640625 205.05078125 339.6015625 222.860351562 326.73828125 240.668945312 c 0
 309.91796875 264.415039062 305.9609375 279.255859375 310.908203125 303.991210938 c 0
 323.76953125 369.291015625 361.3671875 379.184570312 439.529296875 337.629882812 c 0
 469.2109375 321.799804688 485.041015625 317.841796875 486.03125 325.7578125 c 0
 491.966796875 396.994140625 463.275390625 467.241210938 413.8046875 501.870117188 c 0
EndSplineSet
EndChar

StartChar: r
Encoding: 114 114 16
Width: 472
VWidth: 0
Flags: HW
LayerCount: 2
Fore
SplineSet
31.513671875 644.661132812 m 0
 41.408203125 656.534179688 58.2275390625 659.501953125 94.8349609375 657.5234375 c 0
 145.294921875 654.5546875 145.294921875 654.5546875 154.19921875 614.979492188 c 0
 159.146484375 593.212890625 165.083007812 574.4140625 166.072265625 572.435546875 c 0
 167.061523438 570.456054688 188.828125 584.307617188 214.552734375 602.1171875 c 0
 255.1171875 630.809570312 267.979492188 634.767578125 323.385742188 634.767578125 c 0
 379.78125 634.767578125 389.67578125 631.798828125 417.37890625 605.084960938 c 0
 457.943359375 566.499023438 456.954101562 509.114257812 414.41015625 478.442382812 c 2
 387.696289062 457.665039062 l 1
 343.173828125 479.431640625 l 2
 284.799804688 508.124023438 269.958984375 507.134765625 231.372070312 472.505859375 c 0
 203.668945312 445.79296875 199.7109375 436.887695312 199.7109375 390.38671875 c 0
 199.7109375 361.693359375 206.63671875 284.520507812 214.552734375 219.220703125 c 0
 222.467773438 154.91015625 229.393554688 82.6845703125 229.393554688 58.9384765625 c 0
 229.393554688 17.3837890625 229.393554688 17.3837890625 185.859375 11.447265625 c 0
 129.463867188 2.54296875 103.740234375 17.3837890625 91.8671875 63.8857421875 c 0
 86.919921875 83.673828125 68.1220703125 219.220703125 50.3125 364.662109375 c 0
 22.609375 587.276367188 19.6416015625 630.809570312 31.513671875 644.661132812 c 0
EndSplineSet
EndChar

StartChar: s
Encoding: 115 115 17
Width: 417
VWidth: 0
Flags: HW
LayerCount: 2
Fore
SplineSet
203.900390625 790.844726562 m 0
 237.540039062 812.611328125 256.338867188 818.547851562 278.10546875 814.58984375 c 0
 312.734375 807.6640625 352.310546875 767.098632812 352.310546875 737.416992188 c 0
 352.310546875 725.543945312 316.692382812 682.010742188 257.328125 624.625976562 c 0
 204.890625 574.166992188 164.325195312 526.67578125 166.303710938 520.739257812 c 0
 168.282226562 514.802734375 198.954101562 501.94140625 233.583007812 492.046875 c 0
 323.618164062 468.301757812 369.129882812 447.524414062 381.002929688 424.767578125 c 0
 397.822265625 394.096679688 394.854492188 278.337890625 376.055664062 243.708984375 c 0
 329.553710938 152.684570312 126.727539062 -4.6298828125 77.2578125 11.2001953125 c 0
 54.501953125 19.115234375 25.8095703125 71.5537109375 25.8095703125 106.182617188 c 0
 25.8095703125 129.927734375 36.693359375 141.80078125 93.0888671875 179.397460938 c 0
 129.696289062 204.1328125 181.14453125 246.676757812 207.858398438 273.390625 c 2
 256.338867188 322.860351562 l 1
 232.59375 332.75390625 l 2
 219.731445312 338.690429688 191.0390625 347.594726562 169.272460938 353.53125 c 0
 45.59765625 384.203125 -7.830078125 499.961914062 45.59765625 617.700195312 c 0
 69.3427734375 670.138671875 144.537109375 753.247070312 203.900390625 790.844726562 c 0
EndSplineSet
EndChar

StartChar: t
Encoding: 116 116 18
Width: 505
VWidth: 0
Flags: HW
LayerCount: 2
Fore
SplineSet
176.31640625 916.073242188 m 0
 193.13671875 933.8828125 260.416015625 922.999023438 285.150390625 898.264648438 c 0
 300.98046875 882.434570312 306.916015625 860.66796875 310.875 801.303710938 c 2
 316.810546875 724.130859375 l 1
 386.068359375 721.163085938 l 2
 469.177734375 718.194335938 480.060546875 707.311523438 480.060546875 634.095703125 c 2
 480.060546875 582.647460938 l 1
 430.591796875 571.763671875 l 2
 402.888671875 565.827148438 366.28125 560.880859375 349.4609375 560.880859375 c 2
 318.7890625 560.880859375 l 1
 324.7265625 440.173828125 l 2
 328.68359375 332.330078125 352.4296875 179.962890625 367.26953125 166.111328125 c 0
 370.23828125 163.143554688 395.962890625 158.196289062 423.666015625 155.228515625 c 2
 475.11328125 150.28125 l 1
 478.08203125 91.9072265625 l 2
 480.060546875 45.4052734375 478.08203125 31.5537109375 463.2421875 21.66015625 c 0
 436.52734375 1.8720703125 392.00390625 -4.064453125 351.439453125 6.818359375 c 0
 241.6171875 36.5009765625 187.19921875 162.154296875 176.31640625 413.4609375 c 2
 170.380859375 550.986328125 l 1
 112.99609375 550.986328125 l 2
 40.76953125 550.986328125 24.939453125 564.837890625 24.939453125 630.138671875 c 0
 24.939453125 656.8515625 29.88671875 681.586914062 35.822265625 684.5546875 c 0
 41.7578125 688.512695312 72.4296875 693.459960938 105.080078125 696.427734375 c 2
 163.455078125 702.364257812 l 1
 163.455078125 802.29296875 l 2
 163.455078125 869.572265625 167.412109375 907.168945312 176.31640625 916.073242188 c 0
EndSplineSet
EndChar

StartChar: u
Encoding: 117 117 19
Width: 701
VWidth: 0
Flags: HW
LayerCount: 2
Fore
SplineSet
65.6787109375 684.237304688 m 4
 111.19140625 704.024414062 139.883789062 702.045898438 152.74609375 678.30078125 c 4
 158.681640625 666.427734375 167.586914062 603.106445312 171.543945312 536.817382812 c 4
 184.40625 339.926757812 223.982421875 229.115234375 295.21875 184.591796875 c 4
 339.741210938 156.888671875 383.274414062 164.803710938 403.0625 202.401367188 c 4
 418.893554688 234.061523438 432.745117188 317.170898438 448.575195312 466.569335938 c 4
 467.374023438 656.534179688 468.36328125 658.512695312 489.140625 670.385742188 c 4
 525.748046875 689.18359375 569.28125 684.237304688 590.05859375 658.512695312 c 4
 607.868164062 636.74609375 608.857421875 624.873046875 602.920898438 481.411132812 c 4
 596.984375 345.86328125 597.973632812 319.149414062 615.783203125 249.891601562 c 4
 627.655273438 207.34765625 645.46484375 157.877929688 656.348632812 140.069335938 c 4
 686.030273438 92.578125 682.072265625 53.001953125 645.46484375 22.3310546875 c 4
 628.645507812 8.4794921875 610.8359375 -3.3935546875 606.877929688 -3.3935546875 c 4
 589.069335938 -3.3935546875 527.7265625 58.9384765625 527.7265625 76.748046875 c 4
 527.7265625 86.6416015625 525.748046875 95.5458984375 522.779296875 95.5458984375 c 4
 518.822265625 95.5458984375 490.129882812 76.748046875 457.479492188 53.9912109375 c 4
 403.0625 15.4052734375 392.1796875 11.447265625 341.720703125 12.4375 c 4
 276.419921875 12.4375 223.982421875 36.1826171875 168.576171875 90.599609375 c 4
 94.37109375 162.825195312 51.8271484375 288.478515625 32.0390625 495.262695312 c 4
 18.1875 640.703125 22.1455078125 665.438476562 65.6787109375 684.237304688 c 4
EndSplineSet
EndChar

StartChar: v
Encoding: 118 118 20
Width: 651
VWidth: 0
Flags: HW
LayerCount: 2
Fore
SplineSet
512.349609375 716.993164062 m 4
 517.295898438 729.85546875 546.978515625 731.833984375 595.458007812 722.9296875 c 6
 626.129882812 716.993164062 l 5
 626.129882812 631.905273438 l 6
 626.129882812 430.068359375 472.7734375 79.822265625 358.00390625 21.447265625 c 4
 332.279296875 7.595703125 326.342773438 7.595703125 300.618164062 21.447265625 c 4
 265.989257812 39.2568359375 196.731445312 133.249023438 152.208984375 222.294921875 c 4
 86.9091796875 351.90625 12.7041015625 620.032226562 26.5556640625 675.438476562 c 4
 33.4814453125 701.163085938 66.1318359375 718.971679688 107.686523438 718.971679688 c 4
 141.326171875 718.971679688 163.092773438 678.40625 196.731445312 556.7109375 c 4
 229.381835938 442.930664062 316.44921875 258.90234375 339.205078125 258.90234375 c 4
 358.993164062 258.90234375 450.017578125 477.559570312 482.666992188 606.180664062 c 4
 497.5078125 659.608398438 510.370117188 710.067382812 512.349609375 716.993164062 c 4
EndSplineSet
EndChar

StartChar: w
Encoding: 119 119 21
Width: 938
VWidth: 0
Flags: HW
LayerCount: 2
Fore
SplineSet
50.7041015625 663.353515625 m 0
 65.544921875 671.268554688 92.2587890625 678.194335938 109.078125 679.18359375 c 0
 150.6328125 679.18359375 159.538085938 662.364257812 205.049804688 486.251953125 c 0
 247.59375 323.000976562 296.07421875 209.220703125 310.915039062 235.934570312 c 0
 315.862304688 245.828125 340.596679688 312.118164062 365.33203125 384.34375 c 0
 390.06640625 456.569335938 422.716796875 534.732421875 436.568359375 557.48828125 c 0
 460.314453125 595.084960938 467.240234375 600.032226562 498.900390625 600.032226562 c 0
 527.592773438 600.032226562 542.43359375 592.1171875 570.13671875 563.424804688 c 0
 613.669921875 519.891601562 656.21484375 439.75 686.885742188 347.736328125 c 2
 709.641601562 278.478515625 l 1
 727.451171875 337.841796875 l 2
 737.344726562 370.4921875 753.174804688 453.6015625 763.069335938 521.870117188 c 0
 773.952148438 590.138671875 785.825195312 652.469726562 789.783203125 659.395507812 c 0
 800.666015625 676.215820312 869.923828125 665.33203125 895.6484375 642.576171875 c 0
 914.446289062 625.756835938 915.436523438 616.8515625 910.489257812 496.145507812 c 0
 901.584960938 290.3515625 834.305664062 62.7900390625 770.984375 21.2353515625 c 0
 749.217773438 6.39453125 744.270507812 6.39453125 717.556640625 20.24609375 c 0
 676.001953125 42.0126953125 617.627929688 134.026367188 567.168945312 257.701171875 c 0
 543.422851562 315.0859375 520.666992188 362.577148438 517.69921875 362.577148438 c 0
 514.73046875 362.577148438 502.858398438 329.926757812 492.963867188 291.340820312 c 0
 460.314453125 164.698242188 397.982421875 67.7373046875 332.681640625 40.0341796875 c 0
 304.978515625 28.1611328125 295.084960938 28.1611328125 267.381835938 40.0341796875 c 0
 184.272460938 74.6630859375 125.8984375 197.34765625 52.6826171875 488.23046875 c 0
 16.0751953125 636.639648438 16.0751953125 645.543945312 50.7041015625 663.353515625 c 0
EndSplineSet
EndChar

StartChar: x
Encoding: 120 120 22
Width: 654
VWidth: 0
Flags: HW
LayerCount: 2
Fore
SplineSet
432.865234375 731.622070312 m 0
 483.325195312 752.399414062 543.677734375 712.823242188 541.69921875 660.385742188 c 0
 540.709960938 620.809570312 481.345703125 493.177734375 440.780273438 441.728515625 c 2
 412.087890625 405.12109375 l 1
 442.759765625 376.428710938 l 2
 488.271484375 333.884765625 587.2109375 207.2421875 608.977539062 163.708984375 c 0
 637.670898438 109.291992188 634.702148438 61.80078125 603.041992188 37.0654296875 c 0
 555.55078125 -0.53125 534.7734375 8.373046875 483.325195312 88.5146484375 c 0
 431.875976562 169.64453125 343.8203125 283.42578125 332.936523438 283.42578125 c 0
 327 283.42578125 224.102539062 143.920898438 168.697265625 58.8330078125 c 0
 134.068359375 5.4052734375 99.439453125 1.447265625 60.8525390625 46.9599609375 c 0
 15.3408203125 101.376953125 23.255859375 129.080078125 124.173828125 261.659179688 c 0
 173.643554688 326.958984375 213.219726562 384.34375 213.219726562 391.26953125 c 0
 213.219726562 397.206054688 170.67578125 451.623046875 119.2265625 510.986328125 c 0
 66.7890625 572.329101562 25.234375 628.724609375 25.234375 639.608398438 c 0
 25.234375 670.279296875 68.767578125 708.866210938 102.407226562 708.866210938 c 0
 126.15234375 708.866210938 147.919921875 692.045898438 217.176757812 618.831054688 c 0
 275.551757812 558.477539062 308.201171875 530.774414062 318.095703125 534.732421875 c 0
 326.010742188 537.700195312 352.724609375 582.22265625 376.469726562 633.671875 c 0
 400.215820312 685.120117188 425.939453125 728.653320312 432.865234375 731.622070312 c 0
EndSplineSet
EndChar

StartChar: y
Encoding: 121 121 23
Width: 622
VWidth: 0
Flags: HW
LayerCount: 2
Fore
SplineSet
500.993164062 652.364257812 m 4
 522.759765625 656.321289062 575.198242188 651.375 590.0390625 642.469726562 c 4
 602.901367188 634.5546875 596.96484375 349.609375 582.124023438 238.796875 c 4
 573.219726562 179.432617188 556.399414062 32.0126953125 544.526367188 -87.7041015625 c 4
 522.759765625 -304.381835938 522.759765625 -305.37109375 497.036132812 -314.275390625 c 4
 457.459960938 -328.126953125 402.053710938 -314.275390625 395.127929688 -287.5625 c 4
 387.212890625 -255.901367188 388.202148438 -119.364257812 399.0859375 -33.287109375 c 4
 403.04296875 7.2783203125 406.01171875 41.9072265625 404.032226562 43.8857421875 c 4
 402.053710938 45.8642578125 380.287109375 39.927734375 355.551757812 32.0126953125 c 4
 226.930664062 -11.5205078125 113.150390625 45.8642578125 63.6806640625 179.432617188 c 4
 48.83984375 219.998046875 38.9453125 278.372070312 32.01953125 376.322265625 c 4
 19.1572265625 543.530273438 23.115234375 607.841796875 48.83984375 626.639648438 c 4
 75.552734375 646.427734375 147.779296875 643.459960938 156.68359375 622.682617188 c 4
 160.641601562 612.788085938 167.567382812 535.615234375 171.524414062 450.52734375 c 4
 176.471679688 365.439453125 185.375976562 276.393554688 191.3125 252.6484375 c 4
 207.142578125 196.252929688 236.82421875 138.8671875 253.64453125 131.94140625 c 4
 269.474609375 126.005859375 336.75390625 154.698242188 380.287109375 185.369140625 c 4
 429.756835938 220.987304688 451.5234375 303.107421875 463.396484375 505.93359375 c 4
 471.311523438 636.534179688 474.279296875 647.416992188 500.993164062 652.364257812 c 4
EndSplineSet
EndChar

StartChar: z
Encoding: 122 122 24
Width: 659
VWidth: 0
Flags: HW
LayerCount: 2
Fore
SplineSet
149.423828125 672.2578125 m 0
 176.13671875 682.15234375 438.327148438 679.18359375 502.637695312 668.30078125 c 0
 581.7890625 654.44921875 624.333007812 622.788085938 624.333007812 577.276367188 c 0
 624.333007812 508.018554688 583.768554688 451.623046875 432.390625 308.16015625 c 0
 353.239257812 231.9765625 287.938476562 166.676757812 287.938476562 162.71875 c 0
 287.938476562 159.750976562 356.20703125 154.803710938 440.305664062 152.825195312 c 0
 621.365234375 148.8671875 634.227539062 143.920898438 634.227539062 64.7685546875 c 0
 634.227539062 18.267578125 633.23828125 17.2783203125 602.56640625 12.3310546875 c 0
 538.255859375 2.4375 161.295898438 -1.5205078125 114.794921875 7.3837890625 c 0
 35.642578125 22.224609375 6.9501953125 66.748046875 35.642578125 129.080078125 c 0
 58.3994140625 175.581054688 169.2109375 294.30859375 267.161132812 374.450195312 c 0
 352.25 444.697265625 416.560546875 508.018554688 416.560546875 521.870117188 c 0
 416.560546875 525.827148438 358.185546875 527.806640625 286.94921875 526.817382812 c 0
 162.28515625 525.827148438 157.338867188 526.817382812 138.540039062 549.573242188 c 0
 127.65625 562.435546875 119.741210938 587.169921875 119.741210938 608.936523438 c 0
 119.741210938 648.512695312 126.666992188 663.353515625 149.423828125 672.2578125 c 0
EndSplineSet
EndChar

StartChar: B
Encoding: 66 66 25
Width: 790
VWidth: 0
Flags: HW
LayerCount: 2
Fore
SplineSet
270.071289062 863.743164062 m 0
 371.979492188 875.615234375 514.452148438 858.795898438 572.826171875 828.124023438 c 0
 638.126953125 793.495117188 705.405273438 695.544921875 705.405273438 634.203125 c 0
 705.405273438 597.594726562 682.649414062 540.209960938 659.893554688 519.432617188 c 0
 633.1796875 494.698242188 636.147460938 489.750976562 693.533203125 461.05859375 c 0
 747.94921875 433.35546875 764.76953125 393.779296875 764.76953125 291.872070312 c 0
 764.76953125 185.016601562 743.002929688 131.58984375 680.670898438 88.056640625 c 0
 575.794921875 13.8515625 184.983398438 -25.724609375 146.396484375 33.6396484375 c 0
 137.4921875 48.48046875 129.577148438 129.611328125 121.662109375 306.712890625 c 0
 104.841796875 666.852539062 101.874023438 686.640625 74.1708984375 690.598632812 c 0
 44.4892578125 695.544921875 18.7646484375 735.12109375 26.6796875 766.782226562 c 0
 36.57421875 806.357421875 143.428710938 848.901367188 270.071289062 863.743164062 c 0
504.55859375 690.598632812 m 0
 474.875976562 720.280273438 463.993164062 723.248046875 402.650390625 726.216796875 c 0
 365.053710938 728.1953125 319.541015625 728.1953125 302.721679688 725.227539062 c 0
 274.029296875 721.26953125 270.071289062 717.3125 269.08203125 689.609375 c 0
 265.124023438 623.319335938 272.049804688 549.115234375 280.955078125 543.178710938 c 0
 292.827148438 536.252929688 442.2265625 559.998046875 480.8125 575.828125 c 0
 546.11328125 601.552734375 554.028320312 642.118164062 504.55859375 690.598632812 c 0
518.41015625 389.822265625 m 0
 477.844726562 410.599609375 439.2578125 413.567382812 360.106445312 403.673828125 c 2
 286.890625 393.779296875 l 1
 292.827148438 275.051757812 l 2
 295.795898438 209.751953125 302.721679688 151.377929688 307.66796875 146.430664062 c 0
 320.530273438 133.568359375 497.6328125 162.260742188 538.197265625 183.038085938 c 0
 623.286132812 227.561523438 612.40234375 342.331054688 518.41015625 389.822265625 c 0
EndSplineSet
EndChar

StartChar: C
Encoding: 67 67 26
Width: 783
VWidth: 0
Flags: HW
LayerCount: 2
Fore
SplineSet
315.234375 855.827148438 m 0
 487.388671875 895.403320312 708.024414062 819.219726562 708.024414062 720.280273438 c 0
 708.024414062 630.245117188 621.947265625 608.478515625 549.720703125 681.693359375 c 0
 498.272460938 733.142578125 379.544921875 732.153320312 273.6796875 678.725585938 c 0
 237.072265625 659.926757812 222.23046875 645.0859375 205.411132812 606.5 c 0
 163.856445312 519.432617188 160.888671875 369.044921875 197.49609375 298.797851562 c 0
 235.092773438 227.561523438 354.809570312 148.409179688 425.056640625 148.409179688 c 0
 471.55859375 148.409179688 543.784179688 180.0703125 615.021484375 229.540039062 c 0
 685.268554688 279.999023438 703.077148438 283.95703125 732.758789062 251.306640625 c 0
 770.356445312 210.741210938 766.3984375 167.208007812 719.897460938 120.706054688 c 0
 648.66015625 49.4697265625 483.431640625 -5.9365234375 376.577148438 4.947265625 c 0
 263.78515625 16.8193359375 137.142578125 105.865234375 84.705078125 207.7734375 c 0
 15.447265625 344.309570312 4.5634765625 533.284179688 60.958984375 653.000976562 c 0
 115.375976562 769.75 188.591796875 828.124023438 315.234375 855.827148438 c 0
EndSplineSet
EndChar

StartChar: D
Encoding: 68 68 27
Width: 675
VWidth: 0
Flags: HW
LayerCount: 2
Fore
SplineSet
37.3173828125 863.743164062 m 0
 60.0732421875 873.63671875 177.811523438 857.806640625 261.91015625 834.060546875 c 0
 382.616210938 800.420898438 559.717773438 711.375976562 609.1875 659.926757812 c 2
 649.752929688 618.372070312 l 1
 645.795898438 524.379882812 l 2
 640.848632812 415.545898438 622.049804688 370.034179688 532.014648438 250.317382812 c 0
 426.149414062 108.833984375 297.528320312 13.8515625 198.588867188 2.9677734375 c 0
 161.98046875 -1.978515625 153.076171875 0.9892578125 144.171875 16.8193359375 c 0
 133.288085938 37.5966796875 115.479492188 208.762695312 88.765625 527.34765625 c 0
 75.9033203125 685.651367188 69.966796875 721.26953125 49.189453125 765.79296875 c 0
 22.4755859375 823.177734375 17.529296875 856.817382812 37.3173828125 863.743164062 c 0
393.5 633.213867188 m 0
 366.786132812 646.075195312 322.262695312 663.884765625 293.5703125 673.778320312 c 0
 247.069335938 689.609375 240.143554688 690.598632812 235.196289062 676.747070312 c 0
 223.323242188 645.0859375 266.856445312 217.666992188 282.6875 217.666992188 c 0
 286.64453125 217.666992188 319.294921875 249.328125 354.913085938 287.9140625 c 0
 424.170898438 362.119140625 489.470703125 477.877929688 489.470703125 525.369140625 c 0
 489.470703125 561.9765625 449.895507812 606.5 393.5 633.213867188 c 0
EndSplineSet
EndChar

StartChar: E
Encoding: 69 69 28
Width: 679
VWidth: 0
Flags: HW
LayerCount: 2
Fore
SplineSet
211.859375 860.774414062 m 0
 346.416992188 871.658203125 540.338867188 871.658203125 568.041992188 861.763671875 c 0
 594.754882812 850.880859375 609.596679688 801.411132812 598.712890625 757.876953125 c 0
 589.80859375 719.291015625 547.264648438 710.38671875 354.33203125 705.439453125 c 2
 178.219726562 700.4921875 l 1
 181.1875 604.520507812 l 1
 184.15625 509.5390625 l 1
 299.915039062 513.49609375 l 2
 444.3671875 517.454101562 466.133789062 508.549804688 466.133789062 440.28125 c 0
 466.133789062 408.620117188 461.186523438 393.779296875 449.314453125 386.853515625 c 0
 439.419921875 381.907226562 382.03515625 374.981445312 321.681640625 371.0234375 c 0
 261.329101562 367.065429688 207.901367188 361.129882812 201.96484375 358.161132812 c 0
 190.092773438 350.24609375 211.859375 188.974609375 229.66796875 157.313476562 c 0
 239.5625 137.526367188 245.499023438 136.537109375 320.692382812 142.47265625 c 0
 365.215820312 146.430664062 445.356445312 158.303710938 498.784179688 169.186523438 c 0
 600.69140625 189.963867188 623.448242188 186.006835938 644.225585938 148.409179688 c 0
 649.171875 138.515625 654.119140625 116.749023438 654.119140625 101.908203125 c 0
 654.119140625 41.5546875 539.349609375 10.8837890625 302.883789062 7.9150390625 c 2
 136.665039062 5.9365234375 l 1
 114.8984375 31.6611328125 l 2
 102.036132812 46.501953125 87.1953125 82.1201171875 80.26953125 110.8125 c 0
 39.7041015625 297.80859375 10.0224609375 717.3125 32.7783203125 781.623046875 c 0
 50.587890625 830.103515625 99.068359375 850.880859375 211.859375 860.774414062 c 0
EndSplineSet
EndChar

StartChar: F
Encoding: 70 70 29
Width: 671
VWidth: 0
Flags: HW
LayerCount: 2
Fore
SplineSet
111.952148438 864.732421875 m 0
 164.389648438 871.658203125 609.618164062 863.743164062 629.40625 855.827148438 c 0
 642.267578125 849.891601562 646.225585938 837.029296875 646.225585938 796.463867188 c 0
 646.225585938 764.802734375 641.278320312 740.068359375 634.352539062 735.12109375 c 0
 627.426757812 731.1640625 528.487304688 727.206054688 413.717773438 727.206054688 c 2
 205.944335938 727.206054688 l 1
 202.9765625 621.340820312 l 2
 200.0078125 511.517578125 200.0078125 511.517578125 240.573242188 512.506835938 c 0
 248.48828125 512.506835938 318.735351562 518.443359375 396.897460938 525.369140625 c 0
 561.137695312 540.209960938 567.07421875 537.2421875 574 458.090820312 c 0
 579.935546875 380.916992188 580.92578125 380.916992188 391.951171875 377.94921875 c 0
 300.926757812 375.970703125 221.774414062 371.0234375 216.828125 366.076171875 c 0
 212.870117188 362.119140625 215.837890625 289.892578125 225.732421875 202.826171875 c 0
 245.520507812 27.703125 244.53125 25.724609375 177.251953125 9.8935546875 c 0
 119.8671875 -2.9677734375 89.1953125 9.8935546875 80.291015625 50.458984375 c 0
 49.6201171875 186.006835938 14.001953125 701.481445312 27.853515625 804.37890625 c 0
 34.779296875 853.848632812 36.7578125 855.827148438 111.952148438 864.732421875 c 0
EndSplineSet
EndChar

StartChar: G
Encoding: 71 71 30
Width: 901
VWidth: 0
Flags: HW
LayerCount: 2
Fore
SplineSet
305.05859375 861.763671875 m 0
 322.868164062 866.7109375 394.104492188 868.689453125 465.340820312 865.721679688 c 0
 701.806640625 858.795898438 786.89453125 807.346679688 732.477539062 702.470703125 c 0
 713.678710938 665.86328125 685.9765625 663.884765625 602.8671875 693.56640625 c 0
 525.694335938 720.280273438 380.252929688 724.23828125 336.719726562 700.4921875 c 0
 255.588867188 655.969726562 195.235351562 558.01953125 186.331054688 454.1328125 c 0
 181.383789062 402.684570312 184.352539062 388.833007812 212.055664062 332.4375 c 0
 231.84375 292.861328125 261.525390625 252.295898438 290.217773438 227.561523438 c 0
 363.432617188 162.260742188 382.231445312 155.334960938 479.192382812 160.282226562 c 0
 590.994140625 165.229492188 648.37890625 193.921875 661.241210938 250.317382812 c 0
 676.08203125 310.669921875 668.166992188 316.606445312 588.026367188 314.627929688 c 0
 521.736328125 313.638671875 515.799804688 314.627929688 494.033203125 340.352539062 c 0
 462.373046875 375.970703125 464.3515625 405.65234375 498.98046875 439.291992188 c 0
 540.53515625 479.857421875 633.538085938 504.591796875 740.392578125 504.591796875 c 0
 818.5546875 504.591796875 833.396484375 501.624023438 853.18359375 482.825195312 c 0
 870.993164062 466.005859375 875.940429688 451.165039062 875.940429688 413.567382812 c 0
 875.940429688 372.012695312 872.971679688 364.09765625 853.18359375 357.171875 c 0
 832.40625 349.256835938 828.44921875 339.36328125 823.501953125 275.051757812 c 0
 816.576171875 182.048828125 792.831054688 115.759765625 756.223632812 85.087890625 c 0
 716.647460938 51.4482421875 629.580078125 20.77734375 538.555664062 8.904296875 c 0
 342.655273438 -17.8095703125 164.564453125 63.3212890625 80.4658203125 217.666992188 c 0
 51.7734375 270.10546875 25.0595703125 372.012695312 25.0595703125 430.387695312 c 0
 25.0595703125 488.76171875 50.7841796875 597.594726562 77.4970703125 655.969726562 c 0
 122.020507812 750.951171875 219.970703125 839.997070312 305.05859375 861.763671875 c 0
EndSplineSet
EndChar

StartChar: H
Encoding: 72 72 31
Width: 752
VWidth: 0
Flags: HW
LayerCount: 2
Fore
SplineSet
578.790039062 863.743164062 m 0
 629.25 872.647460938 656.953125 870.66796875 670.8046875 855.827148438 c 0
 686.634765625 839.997070312 693.560546875 775.686523438 702.46484375 529.327148438 c 0
 705.43359375 448.196289062 712.359375 343.3203125 717.305664062 296.818359375 c 0
 722.252929688 250.317382812 727.200195312 170.17578125 727.200195312 117.73828125 c 0
 727.200195312 9.8935546875 727.200195312 9.8935546875 642.111328125 9.8935546875 c 0
 571.864257812 9.8935546875 568.896484375 15.830078125 559.002929688 190.953125 c 0
 554.055664062 277.03125 547.129882812 351.235351562 544.161132812 356.182617188 c 0
 538.225585938 366.076171875 210.735351562 371.0234375 201.831054688 362.119140625 c 0
 198.862304688 359.150390625 202.8203125 288.903320312 208.756835938 205.793945312 c 0
 216.671875 107.84375 217.661132812 48.48046875 210.735351562 36.607421875 c 0
 190.947265625 -0.9892578125 110.805664062 -7.9150390625 83.103515625 25.724609375 c 0
 66.283203125 46.501953125 47.484375 236.465820312 33.6328125 547.135742188 c 0
 20.771484375 810.315429688 20.771484375 812.293945312 41.548828125 832.08203125 c 0
 53.4208984375 844.944335938 80.134765625 854.837890625 105.859375 857.806640625 c 0
 175.1171875 865.721679688 183.032226562 851.870117188 183.032226562 718.301757812 c 0
 183.032226562 656.958984375 186 585.72265625 188.96875 559.998046875 c 2
 195.89453125 514.486328125 l 1
 362.112304688 514.486328125 l 1
 529.3203125 514.486328125 l 1
 529.3203125 670.810546875 l 2
 529.3203125 839.0078125 533.278320312 855.827148438 578.790039062 863.743164062 c 0
EndSplineSet
EndChar

StartChar: I
Encoding: 73 73 32
Width: 226
VWidth: 0
Flags: HW
LayerCount: 2
Fore
SplineSet
65.005859375 863.743164062 m 0
 106.560546875 870.66796875 128.327148438 870.66796875 141.189453125 862.752929688 c 0
 161.966796875 849.891601562 173.83984375 770.739257812 173.83984375 643.107421875 c 0
 173.83984375 574.838867188 180.765625 408.620117188 189.669921875 274.0625 c 0
 204.510742188 63.3212890625 204.510742188 26.7138671875 192.638671875 18.798828125 c 0
 184.72265625 13.8515625 153.0625 9.8935546875 121.401367188 9.8935546875 c 0
 51.154296875 9.8935546875 49.17578125 13.8515625 35.32421875 171.165039062 c 0
 23.451171875 309.680664062 20.4833984375 839.997070312 32.3564453125 850.880859375 c 0
 36.3134765625 855.827148438 51.154296875 860.774414062 65.005859375 863.743164062 c 0
EndSplineSet
EndChar

StartChar: J
Encoding: 74 74 33
Width: 495
VWidth: 0
Flags: HW
LayerCount: 2
Fore
SplineSet
300.961914062 848.901367188 m 0
 301.951171875 856.817382812 321.739257812 860.774414062 365.272460938 860.774414062 c 2
 428.594726562 860.774414062 l 1
 434.530273438 824.166992188 l 2
 450.361328125 726.216796875 470.1484375 434.344726562 470.1484375 295.829101562 c 2
 470.1484375 140.494140625 l 1
 438.48828125 93.0029296875 l 2
 392.975585938 26.7138671875 353.400390625 5.9365234375 273.258789062 5.9365234375 c 0
 171.3515625 6.92578125 95.16796875 57.384765625 45.6982421875 155.334960938 c 0
 10.080078125 226.571289062 19.9736328125 264.168945312 76.369140625 273.073242188 c 0
 123.860351562 280.98828125 147.60546875 266.147460938 187.181640625 203.815429688 c 0
 205.98046875 174.133789062 230.71484375 147.419921875 242.587890625 143.462890625 c 0
 270.291015625 134.557617188 309.8671875 161.271484375 317.782226562 194.911132812 c 0
 321.739257812 209.751953125 319.760742188 315.6171875 313.82421875 429.397460938 c 0
 303.930664062 614.415039062 297.004882812 813.283203125 300.961914062 848.901367188 c 0
EndSplineSet
EndChar

StartChar: K
Encoding: 75 75 34
Width: 770
VWidth: 0
Flags: HW
LayerCount: 2
Fore
SplineSet
59.55859375 863.743164062 m 0
 158.498046875 878.583984375 162.456054688 874.625976562 173.338867188 749.961914062 c 0
 187.190429688 598.584960938 191.1484375 563.956054688 199.063476562 563.956054688 c 0
 203.020507812 563.956054688 228.745117188 584.733398438 255.458984375 609.467773438 c 0
 366.271484375 711.375976562 505.776367188 830.103515625 537.436523438 849.891601562 c 0
 585.916992188 878.583984375 629.450195312 877.59375 655.174804688 844.944335938 c 0
 688.814453125 802.400390625 681.888671875 770.739257812 629.450195312 721.26953125 c 0
 569.09765625 664.874023438 397.931640625 527.34765625 337.579101562 485.79296875 c 0
 310.865234375 468.973632812 290.087890625 451.165039062 290.087890625 447.20703125 c 0
 290.087890625 432.366210938 386.059570312 367.065429688 547.331054688 272.083984375 c 0
 637.366210938 218.65625 718.49609375 168.197265625 728.390625 160.282226562 c 0
 740.262695312 149.3984375 745.209960938 130.600585938 745.209960938 93.9921875 c 0
 745.209960938 49.4697265625 741.251953125 39.576171875 720.474609375 25.724609375 c 0
 679.91015625 -0.9892578125 645.28125 5.9365234375 568.108398438 59.36328125 c 0
 529.521484375 86.0771484375 476.094726562 125.653320312 450.370117188 147.419921875 c 0
 424.645507812 168.197265625 377.154296875 202.826171875 344.504882812 222.614257812 c 0
 311.854492188 243.391601562 276.236328125 267.13671875 265.352539062 277.03125 c 0
 254.469726562 286.924804688 233.692382812 301.765625 218.8515625 310.669921875 c 2
 193.126953125 327.490234375 l 1
 194.116210938 171.165039062 l 1
 196.094726562 14.8408203125 l 1
 152.561523438 11.873046875 l 2
 127.827148438 9.8935546875 98.14453125 10.8837890625 86.2724609375 13.8515625 c 0
 57.580078125 21.7666015625 40.759765625 71.236328125 43.728515625 140.494140625 c 0
 45.70703125 169.186523438 40.759765625 336.39453125 33.833984375 510.528320312 c 0
 25.9189453125 685.651367188 22.951171875 836.040039062 25.9189453125 843.955078125 c 0
 28.8876953125 852.859375 43.728515625 860.774414062 59.55859375 863.743164062 c 0
EndSplineSet
EndChar

StartChar: L
Encoding: 76 76 35
Width: 624
VWidth: 0
Flags: HW
LayerCount: 2
Fore
SplineSet
74.2353515625 863.743164062 m 0
 179.111328125 881.551757812 179.111328125 882.541015625 187.026367188 509.5390625 c 0
 189.995117188 384.875 195.930664062 253.28515625 198.899414062 218.65625 c 2
 205.825195312 156.32421875 l 1
 251.336914062 161.271484375 l 2
 276.072265625 164.239257812 337.415039062 179.081054688 385.895507812 193.921875 c 0
 435.365234375 208.762695312 492.75 222.614257812 515.505859375 225.58203125 c 0
 550.134765625 228.55078125 559.0390625 225.58203125 577.837890625 202.826171875 c 0
 606.530273438 165.229492188 606.530273438 104.875976562 576.848632812 85.087890625 c 0
 548.15625 66.2890625 247.379882812 8.904296875 165.259765625 6.92578125 c 0
 92.044921875 4.947265625 81.1611328125 13.8515625 64.341796875 91.0244140625 c 0
 48.5107421875 168.197265625 24.765625 512.506835938 24.765625 678.725585938 c 0
 24.765625 838.018554688 29.712890625 855.827148438 74.2353515625 863.743164062 c 0
EndSplineSet
EndChar

StartChar: M
Encoding: 77 77 36
Width: 1043
VWidth: 0
Flags: HW
LayerCount: 2
Fore
SplineSet
226.5546875 859.78515625 m 0
 240.40625 865.721679688 267.120117188 868.689453125 285.918945312 867.700195312 c 0
 314.611328125 865.721679688 323.515625 859.78515625 342.314453125 826.145507812 c 0
 383.869140625 752.930664062 453.126953125 576.817382812 474.893554688 490.740234375 c 0
 486.766601562 444.239257812 499.627929688 405.65234375 503.5859375 405.65234375 c 0
 507.543945312 405.65234375 520.405273438 442.259765625 532.278320312 487.772460938 c 0
 562.950195312 600.563476562 623.302734375 751.94140625 661.889648438 811.3046875 c 0
 755.881835938 957.735351562 872.630859375 826.145507812 957.71875 479.857421875 c 0
 1000.26269531 308.69140625 1018.07226562 196.889648438 1018.07226562 102.897460938 c 0
 1018.07226562 23.7451171875 1017.08203125 19.7880859375 993.336914062 13.8515625 c 0
 980.474609375 10.8837890625 956.729492188 11.873046875 941.888671875 16.8193359375 c 0
 912.206054688 26.7138671875 914.185546875 22.755859375 864.715820312 237.455078125 c 0
 848.884765625 304.734375 774.680664062 564.9453125 761.818359375 598.584960938 c 0
 754.892578125 616.393554688 751.924804688 613.42578125 733.125976562 577.807617188 c 0
 685.634765625 483.814453125 611.4296875 207.7734375 607.47265625 110.8125 c 0
 605.494140625 25.724609375 596.588867188 14.8408203125 531.2890625 5.9365234375 c 0
 475.8828125 -1.978515625 472.915039062 1.978515625 454.116210938 103.88671875 c 0
 447.190429688 142.47265625 428.391601562 208.762695312 412.561523438 252.295898438 c 0
 396.731445312 295.829101562 363.091796875 390.811523438 338.356445312 463.037109375 c 0
 313.622070312 534.2734375 289.875976562 593.637695312 285.918945312 593.637695312 c 0
 267.120117188 593.637695312 189.947265625 273.073242188 177.084960938 142.47265625 c 0
 170.159179688 60.353515625 164.223632812 41.5546875 146.4140625 27.703125 c 0
 109.806640625 -2.9677734375 50.4423828125 8.904296875 28.67578125 49.4697265625 c 0
 14.82421875 75.1943359375 41.5380859375 309.680664062 73.1982421875 445.228515625 c 0
 98.9228515625 552.083007812 181.04296875 817.241210938 194.89453125 838.018554688 c 0
 198.8515625 844.944335938 213.693359375 854.837890625 226.5546875 859.78515625 c 0
EndSplineSet
EndChar

StartChar: N
Encoding: 78 78 37
Width: 761
VWidth: 0
Flags: HW
LayerCount: 2
Fore
SplineSet
55.4287109375 885.509765625 m 0
 79.1748046875 912.22265625 91.046875 919.1484375 107.8671875 914.202148438 c 0
 179.103515625 891.4453125 362.141601562 688.619140625 516.487304688 460.069335938 c 0
 586.734375 355.193359375 591.681640625 356.182617188 583.766601562 470.952148438 c 0
 579.80859375 524.379882812 568.92578125 635.192382812 559.03125 715.333007812 c 0
 535.286132812 899.361328125 542.211914062 920.138671875 618.395507812 920.138671875 c 0
 654.013671875 920.138671875 684.684570312 889.466796875 697.546875 841.975585938 c 0
 739.1015625 692.577148438 750.974609375 158.303710938 714.3671875 92.013671875 c 0
 693.58984375 53.427734375 655.002929688 40.5654296875 619.384765625 60.353515625 c 0
 605.533203125 68.2685546875 575.8515625 101.908203125 553.095703125 135.546875 c 0
 531.328125 170.17578125 491.752929688 219.645507812 467.017578125 246.359375 c 0
 442.283203125 273.073242188 404.685546875 320.564453125 384.897460938 353.21484375 c 0
 326.5234375 444.239257812 209.774414062 602.541992188 203.838867188 599.57421875 c 0
 197.90234375 595.616210938 204.828125 383.885742188 217.690429688 206.784179688 c 0
 224.616210938 106.854492188 223.625976562 99.9287109375 203.838867188 80.140625 c 0
 188.0078125 64.310546875 171.188476562 59.36328125 129.633789062 59.36328125 c 2
 75.216796875 59.36328125 l 1
 70.2705078125 111.801757812 l 2
 67.3017578125 139.504882812 60.3759765625 243.391601562 54.439453125 341.341796875 c 0
 48.5029296875 439.291992188 39.5986328125 558.01953125 34.6513671875 604.520507812 c 0
 28.7158203125 652.01171875 24.7578125 726.216796875 24.7578125 769.75 c 0
 24.7578125 845.93359375 26.736328125 851.870117188 55.4287109375 885.509765625 c 0
EndSplineSet
EndChar

StartChar: O
Encoding: 79 79 38
Width: 868
VWidth: 0
Flags: HW
LayerCount: 2
Fore
SplineSet
258.887695312 905.296875 m 0
 281.64453125 914.202148438 314.293945312 918.159179688 344.965820312 914.202148438 c 0
 372.668945312 912.22265625 428.075195312 910.244140625 469.62890625 910.244140625 c 0
 585.388671875 912.22265625 628.921875 896.392578125 700.158203125 830.103515625 c 0
 811.959960938 725.227539062 848.568359375 627.27734375 842.631835938 441.270507812 c 0
 839.663085938 330.458007812 836.6953125 316.606445312 808.002929688 257.243164062 c 0
 745.670898438 129.611328125 677.40234375 80.140625 537.897460938 58.3740234375 c 0
 407.297851562 37.5966796875 249.983398438 84.0986328125 157.969726562 168.197265625 c 0
 105.53125 216.677734375 50.1259765625 320.564453125 33.3056640625 402.684570312 c 0
 16.486328125 483.814453125 25.390625 634.203125 52.1044921875 702.470703125 c 0
 85.744140625 792.505859375 164.895507812 869.678710938 258.887695312 905.296875 c 0
364.752929688 742.046875 m 0
 355.848632812 756.887695312 346.944335938 754.909179688 296.485351562 721.26953125 c 0
 212.38671875 665.86328125 175.778320312 595.616210938 177.7578125 494.698242188 c 0
 178.747070312 412.578125 211.397460938 326.500976562 253.94140625 290.8828125 c 0
 305.389648438 247.348632812 407.297851562 204.8046875 463.693359375 204.8046875 c 0
 520.088867188 203.815429688 597.26171875 234.487304688 638.81640625 274.0625 c 0
 670.4765625 304.734375 702.137695312 374.981445312 711.041992188 437.313476562 c 0
 724.893554688 528.337890625 666.51953125 655.969726562 587.3671875 708.407226562 c 0
 552.73828125 731.1640625 539.876953125 734.131835938 459.735351562 733.142578125 c 0
 410.265625 732.153320312 367.721679688 736.110351562 364.752929688 742.046875 c 0
EndSplineSet
EndChar

StartChar: P
Encoding: 80 80 39
Width: 659
VWidth: 0
Flags: HW
LayerCount: 2
Fore
SplineSet
213.03515625 905.296875 m 0
 417.83984375 943.883789062 550.418945312 904.307617188 607.803710938 789.538085938 c 0
 655.294921875 695.544921875 636.49609375 574.838867188 567.239257812 526.358398438 c 0
 503.916992188 481.8359375 363.422851562 435.333984375 293.17578125 435.333984375 c 2
 257.557617188 435.333984375 l 1
 263.494140625 269.115234375 l 2
 271.409179688 80.140625 267.452148438 65.2998046875 212.045898438 56.3955078125 c 0
 139.819335938 44.5224609375 126.958007812 70.2470703125 110.137695312 247.348632812 c 0
 105.190429688 304.734375 97.275390625 404.663085938 94.3076171875 469.962890625 c 0
 83.423828125 677.736328125 71.5517578125 750.951171875 43.8486328125 784.590820312 c 0
 20.1025390625 812.293945312 20.1025390625 814.272460938 35.93359375 833.071289062 c 0
 61.6572265625 860.774414062 134.873046875 890.456054688 213.03515625 905.296875 c 0
431.69140625 755.8984375 m 0
 382.221679688 780.633789062 278.334960938 788.548828125 253.600585938 769.75 c 0
 237.76953125 756.887695312 235.791015625 745.015625 239.749023438 673.778320312 c 0
 242.716796875 629.255859375 248.653320312 588.690429688 254.58984375 582.75390625 c 0
 265.47265625 571.87109375 410.9140625 611.446289062 449.500976562 636.181640625 c 0
 478.193359375 654.98046875 493.034179688 697.524414062 478.193359375 721.26953125 c 0
 473.24609375 730.173828125 452.46875 745.015625 431.69140625 755.8984375 c 0
EndSplineSet
EndChar

StartChar: Q
Encoding: 81 81 40
Width: 947
VWidth: 0
Flags: HW
LayerCount: 2
Fore
SplineSet
355.274414062 889.466796875 m 0
 381.98828125 894.4140625 410.680664062 896.392578125 418.595703125 893.424804688 c 0
 426.510742188 890.456054688 474.991210938 884.51953125 526.439453125 879.573242188 c 0
 638.241210938 868.689453125 685.732421875 848.901367188 764.883789062 775.686523438 c 0
 809.407226562 734.131835938 828.206054688 707.41796875 848.982421875 655.969726562 c 0
 905.37890625 513.49609375 905.37890625 352.224609375 847.00390625 245.370117188 c 0
 824.248046875 203.815429688 822.26953125 194.911132812 835.131835938 186.99609375 c 0
 842.056640625 182.048828125 853.9296875 178.090820312 859.866210938 178.090820312 c 0
 864.813476562 178.090820312 882.622070312 165.229492188 897.462890625 149.3984375 c 0
 921.208984375 124.6640625 924.176757812 115.759765625 921.208984375 63.3212890625 c 2
 918.240234375 4.947265625 l 1
 869.759765625 1.978515625 l 2
 819.30078125 -0.9892578125 775.767578125 20.77734375 725.30859375 74.205078125 c 0
 697.60546875 103.88671875 681.775390625 104.875976562 625.379882812 80.140625 c 0
 491.810546875 22.755859375 285.02734375 65.2998046875 160.36328125 176.112304688 c 0
 70.328125 256.25390625 16.9013671875 403.673828125 25.8056640625 549.115234375 c 0
 31.7421875 646.075195312 58.455078125 709.396484375 121.776367188 769.75 c 0
 175.204101562 821.198242188 287.005859375 878.583984375 355.274414062 889.466796875 c 0
448.27734375 721.26953125 m 0
 434.42578125 721.26953125 398.807617188 724.23828125 369.125976562 727.206054688 c 0
 308.772460938 734.131835938 294.920898438 728.1953125 228.631835938 664.874023438 c 0
 180.151367188 618.372070312 157.395507812 551.09375 164.321289062 472.931640625 c 0
 170.256835938 401.694335938 209.833007812 317.595703125 253.366210938 280.98828125 c 0
 324.603515625 220.635742188 451.24609375 184.02734375 509.620117188 206.784179688 c 2
 536.333984375 216.677734375 l 1
 514.567382812 255.264648438 l 2
 490.821289062 299.787109375 496.7578125 315.6171875 547.216796875 341.341796875 c 0
 575.909179688 356.182617188 594.708007812 350.24609375 663.965820312 306.712890625 c 0
 684.743164062 292.861328125 687.7109375 293.850585938 705.520507812 316.606445312 c 0
 744.106445312 367.065429688 754.990234375 476.888671875 730.255859375 560.987304688 c 0
 718.3828125 600.563476562 702.552734375 623.319335938 660.998046875 660.916992188 c 0
 600.64453125 716.322265625 551.174804688 737.099609375 504.672851562 727.206054688 c 0
 486.864257812 724.23828125 462.12890625 721.26953125 448.27734375 721.26953125 c 0
EndSplineSet
EndChar

StartChar: R
Encoding: 82 82 41
Width: 770
VWidth: 0
Flags: HW
LayerCount: 2
Fore
SplineSet
144.673828125 910.244140625 m 0
 178.313476562 915.19140625 255.486328125 918.159179688 314.849609375 916.180664062 c 0
 407.853515625 914.202148438 431.598632812 910.244140625 480.079101562 888.477539062 c 0
 526.580078125 866.7109375 541.421875 853.848632812 567.145507812 809.326171875 c 0
 595.837890625 759.856445312 597.817382812 751.94140625 594.848632812 671.799804688 c 0
 589.90234375 571.87109375 573.08203125 536.252929688 507.782226562 486.783203125 c 0
 483.046875 467.984375 462.26953125 449.185546875 460.291015625 444.239257812 c 0
 456.333007812 435.333984375 527.5703125 339.36328125 577.040039062 283.95703125 c 0
 590.891601562 268.125976562 629.477539062 243.391601562 663.1171875 227.561523438 c 0
 725.44921875 198.868164062 745.237304688 177.1015625 745.237304688 136.537109375 c 0
 745.237304688 111.801757812 704.671875 67.279296875 673.010742188 56.3955078125 c 0
 624.530273438 38.5869140625 519.655273438 118.727539062 413.7890625 252.295898438 c 0
 330.6796875 356.182617188 275.274414062 407.630859375 252.517578125 403.673828125 c 0
 227.783203125 398.7265625 214.920898438 223.603515625 234.708984375 159.29296875 c 0
 244.602539062 126.642578125 245.591796875 106.854492188 238.666015625 94.982421875 c 0
 223.825195312 68.2685546875 165.451171875 47.4912109375 126.864257812 55.40625 c 0
 79.3740234375 64.310546875 62.5537109375 117.73828125 62.5537109375 261.200195312 c 0
 62.5537109375 321.553710938 55.6279296875 415.545898438 47.712890625 469.962890625 c 0
 24.95703125 622.330078125 18.03125 800.420898438 31.8828125 843.955078125 c 0
 46.7236328125 888.477539062 65.5224609375 899.361328125 144.673828125 910.244140625 c 0
402.90625 743.036132812 m 0
 375.203125 770.739257812 364.319335938 773.708007812 294.072265625 778.654296875 c 0
 192.165039062 785.580078125 186.228515625 779.643554688 194.143554688 674.767578125 c 0
 203.047851562 563.956054688 203.047851562 563.956054688 272.305664062 563.956054688 c 0
 372.234375 563.956054688 433.577148438 605.510742188 433.577148438 673.778320312 c 0
 433.577148438 703.4609375 426.651367188 719.291015625 402.90625 743.036132812 c 0
EndSplineSet
EndChar

StartChar: S
Encoding: 83 83 42
Width: 514
VWidth: 0
Flags: HW
LayerCount: 2
Fore
SplineSet
281.232421875 897.381835938 m 0
 340.596679688 927.064453125 375.224609375 926.07421875 404.907226562 894.4140625 c 0
 456.35546875 839.0078125 435.578125 798.442382812 310.9140625 719.291015625 c 0
 246.603515625 677.736328125 181.303710938 599.57421875 198.123046875 583.743164062 c 0
 203.0703125 579.786132812 251.55078125 557.030273438 305.967773438 533.284179688 c 0
 428.65234375 479.857421875 489.005859375 429.397460938 489.005859375 378.938476562 c 0
 489.005859375 315.6171875 416.779296875 210.741210938 307.946289062 118.727539062 c 0
 238.688476562 60.353515625 194.166015625 41.5546875 154.58984375 53.427734375 c 0
 133.8125 60.353515625 93.2470703125 119.716796875 93.2470703125 143.462890625 c 0
 93.2470703125 157.313476562 160.526367188 219.645507812 260.455078125 298.797851562 c 0
 290.13671875 322.54296875 315.861328125 346.2890625 317.83984375 352.224609375 c 0
 319.819335938 358.161132812 268.370117188 390.811523438 202.081054688 424.451171875 c 0
 136.780273438 458.090820312 69.501953125 497.666015625 52.681640625 511.517578125 c 0
 24.978515625 535.263671875 22.0107421875 542.189453125 26.9580078125 579.786132812 c 0
 28.9365234375 602.541992188 41.798828125 643.107421875 53.671875 668.83203125 c 0
 82.3642578125 728.1953125 221.869140625 868.689453125 281.232421875 897.381835938 c 0
EndSplineSet
EndChar

StartChar: T
Encoding: 84 84 43
Width: 664
VWidth: 0
Flags: HW
LayerCount: 2
Fore
SplineSet
94.0517578125 919.1484375 m 0
 139.563476562 932.010742188 533.34375 926.07421875 578.85546875 912.22265625 c 0
 628.325195312 896.392578125 642.176757812 876.604492188 638.219726562 829.114257812 c 2
 635.250976562 786.569335938 l 1
 528.396484375 783.6015625 l 1
 421.541992188 780.633789062 l 1
 424.509765625 435.333984375 l 2
 426.48828125 245.370117188 424.509765625 83.109375 420.552734375 74.205078125 c 0
 414.616210938 64.310546875 396.806640625 59.36328125 368.114257812 59.36328125 c 0
 325.5703125 59.36328125 323.591796875 60.353515625 315.676757812 96.9609375 c 0
 305.782226562 134.557617188 287.973632812 329.46875 279.068359375 474.91015625 c 0
 265.216796875 729.184570312 261.259765625 777.665039062 251.365234375 783.6015625 c 0
 245.4296875 786.569335938 198.927734375 787.559570312 146.489257812 785.580078125 c 0
 94.0517578125 783.6015625 45.5712890625 785.580078125 38.6455078125 789.538085938 c 0
 19.8466796875 802.400390625 20.8359375 867.700195312 40.6240234375 889.466796875 c 0
 50.5185546875 900.350585938 74.263671875 913.212890625 94.0517578125 919.1484375 c 0
EndSplineSet
EndChar

StartChar: U
Encoding: 85 85 44
Width: 642
VWidth: 0
Flags: HW
LayerCount: 2
Fore
SplineSet
56.0361328125 902.329101562 m 0
 71.8662109375 918.159179688 84.728515625 921.127929688 120.346679688 917.169921875 c 0
 145.081054688 915.19140625 168.827148438 908.265625 174.763671875 902.329101562 c 0
 180.700195312 896.392578125 184.657226562 809.326171875 183.66796875 670.810546875 c 0
 181.689453125 431.376953125 189.604492188 380.916992188 238.084960938 279.009765625 c 0
 294.48046875 164.239257812 388.47265625 169.186523438 452.783203125 291.872070312 c 0
 471.58203125 327.490234375 473.560546875 349.256835938 473.560546875 489.750976562 c 0
 474.55078125 576.817382812 470.592773438 702.470703125 465.645507812 767.771484375 c 2
 456.741210938 888.477539062 l 1
 483.455078125 905.296875 l 2
 501.263671875 917.169921875 519.073242188 920.138671875 542.818359375 916.180664062 c 0
 570.521484375 911.233398438 579.426757812 902.329101562 594.267578125 867.700195312 c 0
 610.09765625 832.08203125 613.065429688 789.538085938 616.034179688 573.849609375 c 0
 619.991210938 283.95703125 615.044921875 259.221679688 534.903320312 157.313476562 c 0
 474.55078125 81.130859375 401.334960938 44.5224609375 329.109375 53.427734375 c 0
 258.862304688 63.3212890625 221.264648438 81.130859375 169.81640625 127.631835938 c 0
 120.346679688 174.133789062 83.7392578125 246.359375 53.0673828125 363.108398438 c 0
 37.2373046875 422.471679688 31.30078125 481.8359375 27.34375 625.297851562 c 0
 21.4072265625 829.114257812 25.3642578125 871.658203125 56.0361328125 902.329101562 c 0
EndSplineSet
EndChar

StartChar: V
Encoding: 86 86 45
Width: 665
VWidth: 0
Flags: HW
LayerCount: 2
Fore
SplineSet
47.216796875 913.212890625 m 0
 100.643554688 923.106445312 132.3046875 920.138671875 142.198242188 902.329101562 c 0
 147.145507812 892.435546875 169.901367188 815.262695312 192.657226562 731.1640625 c 0
 264.883789062 458.090820312 329.194335938 267.13671875 348.982421875 267.13671875 c 0
 362.833984375 267.13671875 424.176757812 473.920898438 506.295898438 796.463867188 c 0
 533.009765625 901.33984375 534.98828125 905.296875 562.69140625 908.265625 c 0
 577.532226562 910.244140625 602.267578125 909.254882812 615.129882812 905.296875 c 2
 639.864257812 899.361328125 l 1
 634.91796875 783.6015625 l 2
 630.959960938 677.736328125 625.0234375 648.0546875 564.670898438 440.28125 c 0
 471.666992188 119.716796875 433.081054688 49.4697265625 347.00390625 49.4697265625 c 0
 258.947265625 49.4697265625 141.208984375 303.744140625 60.078125 669.821289062 c 0
 17.5341796875 862.752929688 14.56640625 907.276367188 47.216796875 913.212890625 c 0
EndSplineSet
EndChar

StartChar: W
Encoding: 87 87 46
Width: 959
VWidth: 0
Flags: HW
LayerCount: 2
Fore
SplineSet
51.826171875 914.202148438 m 0
 60.73046875 916.180664062 86.455078125 917.169921875 107.232421875 915.19140625 c 0
 161.649414062 910.244140625 154.723632812 929.04296875 197.267578125 663.884765625 c 0
 211.119140625 577.807617188 293.239257812 301.765625 311.047851562 283.95703125 c 0
 319.952148438 274.0625 345.676757812 346.2890625 361.506835938 425.440429688 c 0
 366.454101562 455.122070312 382.284179688 569.891601562 395.146484375 680.704101562 c 0
 407.01953125 790.52734375 422.849609375 887.48828125 429.775390625 895.403320312 c 0
 446.594726562 916.180664062 502.000976562 914.202148438 529.704101562 891.4453125 c 0
 548.502929688 876.604492188 552.4609375 862.752929688 554.439453125 805.368164062 c 0
 557.407226562 723.248046875 611.82421875 502.61328125 658.326171875 386.853515625 c 0
 686.029296875 315.6171875 691.965820312 307.702148438 698.891601562 327.490234375 c 0
 717.689453125 376.959960938 785.958007812 693.56640625 795.8515625 776.67578125 c 0
 813.661132812 920.138671875 808.713867188 910.244140625 864.120117188 910.244140625 c 0
 935.356445312 910.244140625 937.3359375 905.296875 932.388671875 734.131835938 c 0
 926.452148438 583.743164062 907.653320312 470.952148438 859.172851562 309.680664062 c 0
 827.512695312 203.815429688 763.202148438 64.310546875 741.435546875 56.3955078125 c 0
 664.262695312 26.7138671875 600.94140625 98.939453125 527.725585938 301.765625 c 2
 495.075195312 390.811523438 l 1
 478.255859375 309.680664062 l 2
 455.5 203.815429688 405.041015625 101.908203125 361.506835938 72.2255859375 c 0
 315.995117188 41.5546875 304.122070312 43.533203125 261.578125 87.06640625 c 0
 156.702148438 197.87890625 47.8681640625 519.432617188 28.0810546875 775.686523438 c 0
 20.1650390625 870.66796875 27.0908203125 906.287109375 51.826171875 914.202148438 c 0
EndSplineSet
EndChar

StartChar: X
Encoding: 88 88 47
Width: 812
VWidth: 0
Flags: HW
LayerCount: 2
Fore
SplineSet
41.90234375 909.254882812 m 0
 62.6796875 921.127929688 114.12890625 923.106445312 129.958984375 912.22265625 c 0
 134.90625 908.265625 163.59765625 865.721679688 193.279296875 816.251953125 c 0
 253.6328125 713.354492188 330.806640625 606.5 348.615234375 599.57421875 c 0
 355.541015625 596.60546875 395.1171875 636.181640625 437.66015625 690.598632812 c 0
 480.205078125 743.036132812 544.515625 817.241210938 581.123046875 853.848632812 c 0
 652.359375 928.053710938 667.201171875 931.021484375 715.681640625 887.48828125 c 0
 754.267578125 851.870117188 744.373046875 827.134765625 648.40234375 712.365234375 c 0
 554.41015625 600.563476562 460.416015625 474.91015625 460.416015625 462.047851562 c 0
 460.416015625 454.1328125 533.6328125 375.970703125 623.66796875 287.9140625 c 0
 762.181640625 152.3671875 786.91796875 123.674804688 786.91796875 97.9501953125 c 0
 786.91796875 75.1943359375 780.98046875 66.2890625 760.203125 58.3740234375 c 0
 702.818359375 36.607421875 634.55078125 78.162109375 473.279296875 231.518554688 c 0
 371.37109375 328.479492188 341.689453125 350.24609375 341.689453125 327.490234375 c 0
 341.689453125 315.6171875 174.48046875 77.1728515625 155.68359375 62.33203125 c 0
 111.16015625 26.7138671875 37.9453125 75.1943359375 48.828125 131.58984375 c 0
 56.744140625 168.197265625 112.1484375 260.2109375 200.205078125 377.94921875 c 2
 263.52734375 464.026367188 l 1
 209.109375 536.252929688 l 2
 139.8515625 629.255859375 25.08203125 838.018554688 25.08203125 872.647460938 c 0
 25.08203125 887.48828125 32.998046875 903.318359375 41.90234375 909.254882812 c 0
EndSplineSet
EndChar

StartChar: Y
Encoding: 89 89 48
Width: 594
VWidth: 0
Flags: HW
LayerCount: 2
Fore
SplineSet
36.78515625 908.265625 m 0
 43.7109375 915.19140625 66.466796875 920.138671875 89.22265625 918.159179688 c 0
 133.74609375 915.19140625 132.755859375 916.180664062 153.533203125 776.67578125 c 0
 174.310546875 637.170898438 227.73828125 524.379882812 272.260742188 524.379882812 c 0
 327.666992188 524.379882812 429.575195312 727.206054688 430.564453125 837.029296875 c 0
 430.564453125 900.350585938 489.928710938 932.010742188 548.302734375 900.350585938 c 0
 566.111328125 891.4453125 569.080078125 880.5625 569.080078125 818.23046875 c 0
 569.080078125 739.079101562 538.408203125 602.541992188 507.737304688 539.220703125 c 0
 477.06640625 478.8671875 442.4375 437.313476562 399.893554688 409.610351562 c 2
 361.306640625 385.864257812 l 1
 361.306640625 308.69140625 l 2
 361.306640625 267.13671875 366.25390625 214.69921875 372.190429688 192.932617188 c 0
 378.126953125 171.165039062 385.052734375 143.462890625 388.020507812 130.600585938 c 0
 398.904296875 84.0986328125 324.69921875 37.5966796875 270.282226562 58.3740234375 c 0
 228.727539062 74.205078125 213.88671875 122.685546875 205.971679688 268.125976562 c 0
 200.03515625 397.737304688 199.045898438 400.705078125 169.364257812 433.35546875 c 0
 113.958007812 493.708984375 67.4560546875 579.786132812 45.689453125 666.852539062 c 0
 21.9443359375 761.834960938 17.986328125 889.466796875 36.78515625 908.265625 c 0
EndSplineSet
EndChar

StartChar: Z
Encoding: 90 90 49
Width: 792
VWidth: 0
Flags: HW
LayerCount: 2
Fore
SplineSet
116.884765625 880.5625 m 0
 218.791992188 892.435546875 575.963867188 891.4453125 623.455078125 879.573242188 c 0
 682.819335938 864.732421875 702.606445312 839.997070312 702.606445312 782.612304688 c 0
 701.6171875 738.08984375 699.638671875 734.131835938 613.561523438 647.065429688 c 0
 540.345703125 573.849609375 242.538085938 213.709960938 238.580078125 193.921875 c 0
 238.580078125 190.953125 328.615234375 186.99609375 440.416992188 185.016601562 c 0
 552.21875 182.048828125 670.946289062 175.123046875 705.575195312 168.197265625 c 2
 766.91796875 156.32421875 l 1
 766.91796875 113.780273438 l 2
 766.91796875 46.501953125 764.938476562 45.5126953125 505.716796875 41.5546875 c 0
 380.063476562 39.576171875 233.6328125 37.5966796875 181.1953125 36.607421875 c 0
 93.138671875 34.62890625 83.2451171875 36.607421875 62.4677734375 57.384765625 c 0
 -1.8427734375 121.6953125 73.3505859375 261.200195312 354.33984375 598.584960938 c 0
 417.661132812 674.767578125 470.098632812 741.057617188 470.098632812 746.004882812 c 0
 470.098632812 750.951171875 389.958007812 751.94140625 268.26171875 747.983398438 c 0
 72.361328125 741.057617188 65.435546875 741.057617188 45.6474609375 760.845703125 c 0
 20.9130859375 785.580078125 17.9443359375 842.965820312 39.7119140625 860.774414062 c 0
 48.6162109375 867.700195312 83.2451171875 876.604492188 116.884765625 880.5625 c 0
EndSplineSet
EndChar

StartChar: zero
Encoding: 48 48 50
Width: 712
VWidth: 0
Flags: HW
LayerCount: 2
Fore
SplineSet
235.701171875 890.456054688 m 0
 299.022460938 904.307617188 412.802734375 894.4140625 464.250976562 872.647460938 c 0
 514.7109375 849.891601562 598.809570312 775.686523438 628.491210938 727.206054688 c 0
 639.374023438 710.38671875 657.18359375 655.969726562 669.056640625 607.489257812 c 0
 686.865234375 533.284179688 688.84375 497.666015625 685.875976562 380.916992188 c 0
 682.908203125 264.168945312 677.9609375 234.487304688 659.162109375 191.942382812 c 0
 612.661132812 85.087890625 526.583007812 35.6181640625 386.088867188 34.62890625 c 0
 310.89453125 34.62890625 290.1171875 38.5869140625 249.552734375 59.36328125 c 0
 147.64453125 110.8125 67.50390625 232.5078125 39.80078125 379.927734375 c 0
 12.09765625 522.401367188 23.9697265625 661.90625 69.482421875 751.94140625 c 0
 113.015625 839.0078125 154.5703125 873.63671875 235.701171875 890.456054688 c 0
401.918945312 737.099609375 m 0
 327.71484375 773.708007812 297.04296875 770.739257812 248.5625 719.291015625 c 0
 203.05078125 672.7890625 185.241210938 626.288085938 176.336914062 531.305664062 c 0
 169.411132812 456.111328125 199.092773438 327.490234375 238.668945312 260.2109375 c 0
 295.064453125 163.25 400.9296875 141.483398438 476.124023438 210.741210938 c 0
 504.81640625 237.455078125 512.731445312 255.264648438 525.59375 316.606445312 c 0
 550.329101562 435.333984375 530.541015625 586.711914062 480.08203125 666.852539062 c 0
 460.293945312 697.524414062 435.55859375 719.291015625 401.918945312 737.099609375 c 0
EndSplineSet
EndChar

StartChar: one
Encoding: 49 49 51
Width: 251
VWidth: 0
Flags: HW
LayerCount: 2
Fore
SplineSet
30.064453125 875.615234375 m 0
 37.9794921875 885.509765625 59.74609375 890.456054688 90.41796875 890.456054688 c 0
 150.770507812 890.456054688 155.717773438 882.541015625 168.580078125 754.909179688 c 0
 173.526367188 701.481445312 189.357421875 544.16796875 203.208984375 405.65234375 c 0
 217.060546875 266.147460938 227.943359375 121.6953125 225.96484375 84.0986328125 c 2
 222.997070312 15.830078125 l 1
 189.357421875 6.92578125 l 2
 108.2265625 -13.8515625 95.3642578125 8.904296875 74.5869140625 207.7734375 c 0
 66.671875 280.98828125 55.7890625 385.864257812 49.8525390625 440.28125 c 0
 27.0966796875 662.895507812 18.19140625 860.774414062 30.064453125 875.615234375 c 0
EndSplineSet
EndChar

StartChar: two
Encoding: 50 50 52
Width: 673
VWidth: 0
Flags: HW
LayerCount: 2
Fore
SplineSet
194.383789062 914.202148438 m 0
 245.833007812 933 297.28125 927.064453125 369.506835938 894.4140625 c 0
 473.393554688 846.922851562 527.810546875 766.782226562 527.810546875 656.958984375 c 0
 527.810546875 575.828125 496.150390625 514.486328125 400.178710938 412.578125 c 0
 280.461914062 283.95703125 249.790039062 246.359375 252.758789062 235.4765625 c 0
 255.7265625 227.561523438 418.977539062 168.197265625 441.733398438 168.197265625 c 0
 445.690429688 168.197265625 471.415039062 187.985351562 497.139648438 212.719726562 c 0
 547.598632812 260.2109375 593.110351562 271.094726562 629.71875 243.391601562 c 0
 658.411132812 221.625 652.474609375 149.3984375 617.845703125 101.908203125 c 0
 560.4609375 22.755859375 468.447265625 10.8837890625 323.995117188 65.2998046875 c 2
 256.715820312 90.03515625 l 1
 189.4375 59.36328125 l 2
 150.850585938 41.5546875 114.243164062 30.6708984375 104.349609375 34.62890625 c 0
 74.6669921875 43.533203125 49.9326171875 109.823242188 54.87890625 165.229492188 c 0
 63.7841796875 257.243164062 105.338867188 320.564453125 247.811523438 462.047851562 c 2
 379.401367188 591.659179688 l 1
 379.401367188 650.033203125 l 2
 378.412109375 730.173828125 339.825195312 771.728515625 264.630859375 771.728515625 c 0
 216.151367188 771.728515625 202.299804688 757.876953125 165.69140625 677.736328125 c 0
 136.999023438 612.436523438 129.083984375 603.53125 91.4873046875 603.53125 c 0
 35.091796875 603.53125 7.388671875 686.640625 37.0703125 766.782226562 c 0
 57.84765625 820.208984375 135.020507812 892.435546875 194.383789062 914.202148438 c 0
EndSplineSet
EndChar

StartChar: three
Encoding: 51 51 53
Width: 685
VWidth: 0
Flags: HW
LayerCount: 2
Fore
SplineSet
28.40625 855.615234375 m 4
 34.341796875 868.477539062 68.970703125 870.456054688 291.584960938 870.456054688 c 4
 580.489257812 870.456054688 569.60546875 873.424804688 569.60546875 796.251953125 c 4
 569.60546875 740.845703125 542.891601562 696.322265625 474.623046875 635.969726562 c 4
 439.994140625 605.297851562 411.301757812 577.594726562 411.301757812 574.626953125 c 4
 411.301757812 571.659179688 440.984375 555.828125 476.602539062 539.998046875 c 4
 551.795898438 506.358398438 620.064453125 449.962890625 642.8203125 401.482421875 c 4
 667.555664062 350.034179688 664.587890625 216.465820312 637.874023438 161.059570312 c 4
 593.350585938 68.056640625 488.474609375 16.607421875 346.991210938 15.6181640625 c 4
 216.390625 14.62890625 146.143554688 50.2470703125 83.8125 147.208007812 c 4
 53.140625 194.69921875 46.21484375 254.0625 66.9921875 274.83984375 c 4
 84.8017578125 292.649414062 142.186523438 289.680664062 159.005859375 268.903320312 c 4
 166.920898438 259.999023438 183.741210938 236.25390625 195.61328125 218.444335938 c 4
 248.051757812 139.29296875 338.086914062 122.47265625 437.026367188 173.921875 c 4
 478.581054688 194.69921875 498.369140625 212.5078125 513.209960938 240.2109375 c 4
 535.965820312 283.744140625 530.029296875 302.54296875 478.581054688 367.842773438 c 4
 441.973632812 414.344726562 393.493164062 440.069335938 325.224609375 449.962890625 c 4
 296.532226562 453.920898438 261.903320312 465.79296875 248.051757812 476.676757812 c 4
 200.560546875 513.284179688 217.380859375 552.860351562 333.139648438 676.53515625 c 4
 373.705078125 720.068359375 397.450195312 751.728515625 386.567382812 746.782226562 c 4
 375.68359375 742.82421875 300.489257812 736.887695312 218.370117188 734.909179688 c 4
 103.599609375 730.951171875 66.0029296875 733.919921875 52.1513671875 743.813476562 c 4
 33.3525390625 757.665039062 18.51171875 828.901367188 28.40625 855.615234375 c 4
EndSplineSet
EndChar

StartChar: four
Encoding: 52 52 54
Width: 632
VWidth: 0
Flags: HW
LayerCount: 2
Fore
SplineSet
314.12109375 885.509765625 m 0
 339.845703125 925.084960938 410.092773438 916.180664062 433.837890625 870.66796875 c 0
 441.75390625 854.837890625 453.625976562 767.771484375 463.520507812 656.958984375 c 0
 472.424804688 554.061523438 481.329101562 465.015625 483.307617188 458.090820312 c 0
 485.287109375 451.165039062 501.1171875 449.185546875 527.831054688 452.154296875 c 0
 582.248046875 460.069335938 606.982421875 437.313476562 606.982421875 379.927734375 c 0
 606.982421875 332.4375 597.088867188 323.532226562 533.767578125 311.66015625 c 2
 496.169921875 303.744140625 l 1
 503.095703125 169.186523438 l 2
 511.010742188 13.8515625 509.032226562 10.8837890625 434.828125 2.9677734375 c 2
 390.3046875 -1.978515625 l 1
 379.421875 40.5654296875 l 2
 372.49609375 64.310546875 362.6015625 125.653320312 355.67578125 178.090820312 c 2
 343.803710938 272.083984375 l 1
 221.118164062 273.073242188 l 2
 41.0478515625 274.0625 16.3134765625 288.903320312 27.1962890625 387.842773438 c 0
 33.1328125 452.154296875 105.358398438 768.760742188 123.16796875 814.272460938 c 0
 133.061523438 837.029296875 139.987304688 840.986328125 171.6484375 840.986328125 c 0
 193.415039062 840.986328125 218.150390625 833.071289062 232.001953125 822.188476562 c 0
 254.7578125 804.37890625 254.7578125 802.400390625 242.884765625 719.291015625 c 0
 235.958984375 672.7890625 219.139648438 589.6796875 205.288085938 534.2734375 c 0
 191.436523438 478.8671875 183.521484375 429.397460938 188.467773438 425.440429688 c 0
 192.42578125 421.482421875 225.076171875 420.493164062 260.694335938 424.451171875 c 2
 325.004882812 430.387695312 l 1
 327.97265625 465.015625 l 2
 329.952148438 483.814453125 324.015625 580.775390625 315.110351562 679.71484375 c 0
 299.280273438 847.912109375 299.280273438 862.752929688 314.12109375 885.509765625 c 0
EndSplineSet
EndChar

StartChar: five
Encoding: 53 53 55
Width: 581
VWidth: 0
Flags: HW
LayerCount: 2
Fore
SplineSet
203.352539062 905.296875 m 0
 280.525390625 912.22265625 379.46484375 917.169921875 422.998046875 916.180664062 c 0
 499.181640625 915.19140625 502.150390625 914.202148438 515.012695312 887.48828125 c 0
 533.810546875 847.912109375 521.938476562 806.357421875 488.298828125 791.516601562 c 0
 472.467773438 785.580078125 394.305664062 774.697265625 313.17578125 768.760742188 c 2
 165.755859375 756.887695312 l 1
 162.787109375 664.874023438 l 1
 159.819335938 572.860351562 l 1
 192.46875 577.807617188 l 2
 210.278320312 580.775390625 267.663085938 585.72265625 319.112304688 588.690429688 c 0
 404.200195312 593.637695312 417.0625 591.659179688 452.680664062 570.881835938 c 0
 473.458007812 559.008789062 505.118164062 529.327148438 520.948242188 506.5703125 c 0
 546.672851562 469.962890625 551.620117188 453.143554688 554.587890625 390.811523438 c 0
 558.545898438 329.46875 554.587890625 309.680664062 533.810546875 264.168945312 c 0
 477.415039062 140.494140625 280.525390625 0 163.776367188 0 c 0
 106.391601562 0 81.6572265625 20.77734375 81.6572265625 70.2470703125 c 0
 81.6572265625 102.897460938 89.572265625 108.833984375 176.638671875 141.483398438 c 0
 259.748046875 174.133789062 329.995117188 216.677734375 369.571289062 259.221679688 c 0
 404.200195312 297.80859375 424.977539062 377.94921875 409.146484375 418.514648438 c 0
 399.252929688 443.249023438 395.294921875 445.228515625 336.920898438 445.228515625 c 0
 302.291992188 445.228515625 233.034179688 438.302734375 181.5859375 430.387695312 c 0
 78.6884765625 413.567382812 54.943359375 416.536132812 42.0810546875 449.185546875 c 0
 26.2509765625 491.729492188 18.3359375 786.569335938 32.1865234375 836.040039062 c 0
 39.1123046875 860.774414062 49.0068359375 883.530273438 53.9541015625 886.499023438 c 0
 58.900390625 889.466796875 126.1796875 897.381835938 203.352539062 905.296875 c 0
EndSplineSet
EndChar

StartChar: six
Encoding: 54 54 56
Width: 629
VWidth: 0
Flags: HW
LayerCount: 2
Fore
SplineSet
221.991210938 839.0078125 m 0
 280.366210938 895.403320312 301.142578125 910.244140625 324.888671875 910.244140625 c 0
 358.528320312 910.244140625 415.913085938 867.700195312 415.913085938 843.955078125 c 0
 415.913085938 835.049804688 381.284179688 791.516601562 338.740234375 747.983398438 c 0
 270.471679688 676.747070312 172.521484375 537.2421875 183.405273438 526.358398438 c 0
 185.383789062 524.379882812 203.192382812 528.337890625 223.969726562 534.2734375 c 0
 308.068359375 561.9765625 459.446289062 522.401367188 533.651367188 452.154296875 c 0
 584.110351562 404.663085938 603.8984375 353.21484375 603.8984375 269.115234375 c 0
 603.8984375 182.048828125 589.057617188 143.462890625 539.587890625 99.9287109375 c 0
 482.202148438 49.4697265625 441.637695312 35.6181640625 351.602539062 35.6181640625 c 0
 211.108398438 36.607421875 110.189453125 93.9921875 54.783203125 203.815429688 c 0
 26.0908203125 259.221679688 25.1015625 268.125976562 25.1015625 385.864257812 c 0
 26.0908203125 500.634765625 28.0693359375 515.475585938 57.751953125 592.6484375 c 0
 99.306640625 701.481445312 133.935546875 753.919921875 221.991210938 839.0078125 c 0
394.146484375 384.875 m 0
 295.20703125 432.366210938 197.256835938 390.811523438 181.42578125 293.850585938 c 0
 162.627929688 178.090820312 424.817382812 116.749023438 464.393554688 227.561523438 c 0
 470.330078125 245.370117188 475.276367188 269.115234375 475.276367188 280.98828125 c 0
 475.276367188 316.606445312 439.658203125 362.119140625 394.146484375 384.875 c 0
EndSplineSet
EndChar

StartChar: seven
Encoding: 55 55 57
Width: 584
VWidth: 0
Flags: HW
LayerCount: 2
Fore
SplineSet
246.161132812 870.66796875 m 0
 259.0234375 883.530273438 307.502929688 883.530273438 333.227539062 869.678710938 c 0
 358.952148438 855.827148438 427.220703125 855.827148438 463.828125 870.66796875 c 0
 483.616210938 877.59375 497.467773438 876.604492188 518.245117188 865.721679688 c 0
 550.89453125 849.891601562 558.809570312 833.071289062 558.809570312 785.580078125 c 0
 558.809570312 744.025390625 541.990234375 710.38671875 495.48828125 653.991210938 c 0
 475.701171875 630.245117188 459.870117188 606.5 459.870117188 600.563476562 c 0
 460.859375 593.637695312 479.658203125 579.786132812 502.4140625 568.90234375 c 0
 530.1171875 556.041015625 546.9375 540.209960938 553.86328125 520.421875 c 0
 561.778320312 495.6875 559.799804688 489.750976562 536.053710938 468.973632812 c 0
 513.297851562 450.174804688 497.467773438 445.228515625 449.9765625 445.228515625 c 0
 404.463867188 445.228515625 389.623046875 441.270507812 382.697265625 428.408203125 c 0
 366.8671875 397.737304688 352.026367188 296.818359375 345.100585938 174.133789062 c 0
 339.1640625 68.2685546875 336.196289062 53.427734375 315.418945312 32.650390625 c 0
 277.821289062 -4.947265625 197.680664062 9.8935546875 186.796875 56.3955078125 c 0
 176.903320312 94.982421875 203.6171875 288.903320312 239.235351562 433.35546875 c 0
 244.181640625 453.143554688 240.224609375 455.122070312 208.563476562 455.122070312 c 0
 159.09375 455.122070312 118.528320312 493.708984375 128.422851562 532.294921875 c 0
 138.31640625 572.860351562 146.231445312 576.817382812 224.39453125 582.75390625 c 2
 295.630859375 588.690429688 l 1
 328.280273438 653.000976562 l 2
 373.79296875 746.994140625 374.782226562 746.004882812 284.747070312 738.08984375 c 0
 61.1435546875 719.291015625 59.1650390625 718.301757812 41.35546875 736.110351562 c 0
 21.568359375 756.887695312 19.5888671875 810.315429688 37.3984375 835.049804688 c 0
 47.2919921875 848.901367188 69.05859375 852.859375 143.263671875 856.817382812 c 0
 194.711914062 858.795898438 241.213867188 865.721679688 246.161132812 870.66796875 c 0
EndSplineSet
EndChar

StartChar: eight
Encoding: 56 56 58
Width: 628
VWidth: 0
Flags: HW
LayerCount: 2
Fore
SplineSet
184.118164062 893.424804688 m 0
 222.705078125 904.307617188 344.400390625 890.456054688 392.880859375 870.66796875 c 0
 475.000976562 835.049804688 507.650390625 793.495117188 520.512695312 709.396484375 c 0
 530.407226562 642.118164062 518.534179688 578.796875 488.852539062 544.16796875 c 2
 464.1171875 513.49609375 l 1
 508.640625 468.973632812 l 2
 604.611328125 374.981445312 632.314453125 220.635742188 568.00390625 140.494140625 c 0
 449.276367188 -6.92578125 130.690429688 -0.9892578125 52.5283203125 151.377929688 c 0
 15.9208984375 222.614257812 15.9208984375 324.521484375 53.517578125 387.842773438 c 0
 68.359375 413.567382812 96.0625 447.20703125 114.860351562 462.047851562 c 0
 133.659179688 477.877929688 149.489257812 495.6875 149.489257812 502.61328125 c 0
 149.489257812 509.5390625 132.669921875 529.327148438 112.881835938 547.135742188 c 0
 40.65625 610.45703125 17.8994140625 714.34375 60.443359375 789.538085938 c 0
 83.2001953125 829.114257812 146.521484375 882.541015625 184.118164062 893.424804688 c 0
330.548828125 754.909179688 m 0
 264.259765625 789.538085938 189.065429688 760.845703125 189.065429688 699.502929688 c 0
 189.065429688 658.9375 254.365234375 593.637695312 294.930664062 593.637695312 c 0
 350.336914062 593.637695312 405.743164062 683.672851562 375.071289062 723.248046875 c 0
 368.145507812 732.153320312 348.358398438 746.004882812 330.548828125 754.909179688 c 0
377.05078125 385.864257812 m 0
 330.548828125 409.610351562 302.845703125 410.599609375 263.26953125 389.822265625 c 0
 194.012695312 354.204101562 159.383789062 293.850585938 179.170898438 243.391601562 c 0
 199.948242188 188.974609375 338.463867188 158.303710938 406.732421875 192.932617188 c 0
 484.89453125 233.497070312 469.064453125 339.36328125 377.05078125 385.864257812 c 0
EndSplineSet
EndChar

StartChar: nine
Encoding: 57 57 59
Width: 642
VWidth: 0
Flags: HW
LayerCount: 2
Fore
SplineSet
198.520507812 890.456054688 m 0
 262.831054688 906.287109375 408.272460938 896.392578125 463.678710938 871.658203125 c 0
 571.522460938 824.166992188 617.03515625 746.994140625 617.03515625 610.45703125 c 0
 617.03515625 511.517578125 599.225585938 449.185546875 535.904296875 322.54296875 c 0
 451.805664062 155.334960938 351.876953125 35.6181640625 277.671875 10.8837890625 c 0
 236.1171875 -2.9677734375 214.350585938 1.978515625 183.6796875 30.6708984375 c 0
 143.114257812 67.279296875 153.998046875 93.9921875 253.926757812 196.889648438 c 0
 337.036132812 283.95703125 379.580078125 340.352539062 368.696289062 350.24609375 c 0
 366.717773438 352.224609375 330.110351562 359.150390625 287.56640625 365.086914062 c 0
 245.022460938 371.0234375 193.573242188 384.875 171.806640625 395.758789062 c 0
 65.94140625 450.174804688 -7.2734375 649.043945312 39.2275390625 759.856445312 c 0
 66.9306640625 826.145507812 121.34765625 870.66796875 198.520507812 890.456054688 c 0
387.495117188 746.004882812 m 0
 294.4921875 792.505859375 194.5625 773.708007812 165.870117188 706.428710938 c 0
 129.262695312 619.362304688 177.743164062 534.2734375 281.629882812 499.64453125 c 0
 395.41015625 462.047851562 478.51953125 517.454101562 478.51953125 631.234375 c 0
 478.51953125 681.693359375 452.794921875 713.354492188 387.495117188 746.004882812 c 0
EndSplineSet
EndChar

StartChar: parenleft
Encoding: 40 40 60
Width: 280
VWidth: 0
Flags: HW
LayerCount: 2
Fore
SplineSet
133.572265625 855.2265625 m 4
 152.37109375 883.918945312 195.904296875 886.88671875 227.565429688 861.163085938 c 6
 250.321289062 843.353515625 l 5
 224.596679688 769.1484375 l 6
 169.19140625 609.856445312 155.33984375 534.662109375 161.275390625 433.743164062 c 4
 167.211914062 325.899414062 197.883789062 195.298828125 233.501953125 125.051757812 c 4
 265.162109375 62.7197265625 262.194335938 27.1015625 224.596679688 14.2392578125 c 4
 185.021484375 0.388671875 169.19140625 13.25 120.7109375 105.264648438 c 4
 41.55859375 254.663085938 5.9404296875 451.552734375 34.6328125 587.099609375 c 4
 51.453125 666.251953125 104.879882812 811.693359375 133.572265625 855.2265625 c 4
EndSplineSet
EndChar

StartChar: parenright
Encoding: 41 41 61
Width: 264
VWidth: 0
Flags: HW
LayerCount: 2
Fore
SplineSet
40.3486328125 867.982421875 m 4
 74.9775390625 887.770507812 117.521484375 880.844726562 134.340820312 852.15234375 c 4
 159.076171875 808.619140625 209.53515625 646.357421875 227.34375 553.354492188 c 4
 255.046875 407.913085938 232.291015625 211.0234375 172.927734375 76.4658203125 c 4
 147.203125 19.0810546875 129.393554688 4.2392578125 97.7333984375 12.1552734375 c 4
 52.220703125 24.02734375 49.2529296875 48.7626953125 83.8818359375 154.627929688 c 4
 140.27734375 328.76171875 132.362304688 482.118164062 53.2099609375 732.435546875 c 4
 18.58203125 840.279296875 17.591796875 855.120117188 40.3486328125 867.982421875 c 4
EndSplineSet
EndChar

StartChar: exclam
Encoding: 33 33 62
Width: 248
VWidth: 0
Flags: HW
LayerCount: 2
Fore
SplineSet
40.2099609375 912.504882812 m 4
 61.9765625 934.271484375 126.287109375 933.282226562 146.075195312 910.526367188 c 4
 181.693359375 871.940429688 190.59765625 701.763671875 175.756835938 377.2421875 c 6
 169.8203125 235.758789062 l 5
 136.180664062 229.822265625 l 6
 112.435546875 225.864257812 97.5947265625 227.842773438 88.6904296875 236.748046875 c 4
 77.806640625 248.620117188 63.955078125 347.560546875 33.2841796875 616.67578125 c 4
 29.326171875 655.262695312 25.369140625 733.424804688 25.369140625 791.798828125 c 4
 24.37890625 874.908203125 27.34765625 900.6328125 40.2099609375 912.504882812 c 4
93.63671875 145.723632812 m 4
 131.234375 160.564453125 175.756835938 158.5859375 200.4921875 140.776367188 c 4
 248.971679688 107.13671875 212.364257812 18.0908203125 149.04296875 18.0908203125 c 4
 101.551757812 18.0908203125 54.0615234375 51.73046875 54.0615234375 84.380859375 c 4
 54.0615234375 119.999023438 62.9658203125 133.850585938 93.63671875 145.723632812 c 4
EndSplineSet
EndChar

StartChar: period
Encoding: 46 46 63
Width: 208
VWidth: 0
Flags: HW
LayerCount: 2
Fore
SplineSet
44.5029296875 156.712890625 m 4
 72.2060546875 184.416015625 130.581054688 183.426757812 160.262695312 154.734375 c 4
 177.08203125 138.903320312 183.018554688 123.073242188 183.018554688 91.4130859375 c 4
 183.018554688 53.8154296875 179.061523438 46.8896484375 153.336914062 33.0380859375 c 4
 116.729492188 14.2392578125 50.439453125 28.0908203125 34.609375 57.7734375 c 4
 18.779296875 88.4443359375 22.736328125 134.946289062 44.5029296875 156.712890625 c 4
EndSplineSet
EndChar

StartChar: comma
Encoding: 44 44 64
Width: 226
VWidth: 0
Flags: HW
LayerCount: 2
Fore
SplineSet
87.2353515625 134.946289062 m 0
 106.033203125 160.669921875 146.598632812 163.638671875 179.249023438 140.8828125 c 0
 195.079101562 129.999023438 201.015625 116.147460938 201.015625 88.4443359375 c 0
 201.015625 42.9326171875 176.280273438 -41.166015625 145.609375 -102.508789062 c 0
 116.916992188 -158.904296875 86.24609375 -164.840820312 45.6806640625 -124.275390625 c 0
 23.9140625 -102.508789062 21.9345703125 -94.59375 27.87109375 -54.0283203125 c 0
 36.7763671875 8.3037109375 68.4365234375 107.243164062 87.2353515625 134.946289062 c 0
EndSplineSet
EndChar

StartChar: colon
Encoding: 58 58 65
Width: 228
VWidth: 0
Flags: HW
LayerCount: 2
Fore
SplineSet
53.7138671875 713.354492188 m 0
 69.5439453125 729.184570312 91.3115234375 742.046875 102.194335938 742.046875 c 0
 130.88671875 742.046875 187.282226562 700.4921875 197.176757812 669.821289062 c 0
 206.081054688 647.065429688 203.11328125 639.149414062 182.3359375 617.3828125 c 0
 145.727539062 581.764648438 87.353515625 574.838867188 51.7353515625 603.53125 c 0
 15.1279296875 632.223632812 16.1171875 674.767578125 53.7138671875 713.354492188 c 0
87.353515625 314.627929688 m 0
 116.045898438 328.479492188 159.579101562 329.46875 184.314453125 316.606445312 c 0
 199.155273438 307.702148438 203.11328125 294.83984375 203.11328125 246.359375 c 0
 203.11328125 193.921875 201.133789062 186.99609375 179.3671875 179.081054688 c 0
 157.600585938 170.17578125 99.2265625 178.090820312 76.4697265625 191.942382812 c 0
 61.62890625 200.84765625 50.74609375 260.2109375 58.6611328125 284.946289062 c 0
 62.6181640625 294.83984375 74.4912109375 308.69140625 87.353515625 314.627929688 c 0
EndSplineSet
EndChar

StartChar: semicolon
Encoding: 59 59 66
Width: 227
VWidth: 0
Flags: HWO
LayerCount: 2
Fore
SplineSet
60.451171875 688.619140625 m 0
 72.32421875 700.4921875 86.17578125 702.470703125 116.846679688 697.524414062 c 0
 180.16796875 687.629882812 201.934570312 668.83203125 201.934570312 623.319335938 c 0
 201.934570312 578.796875 184.125976562 557.030273438 138.61328125 549.115234375 c 0
 82.2177734375 538.231445312 49.5673828125 546.146484375 39.673828125 574.838867188 c 0
 28.7900390625 607.489257812 39.673828125 666.852539062 60.451171875 688.619140625 c 0
85.185546875 284.946289062 m 0
 99.037109375 300.776367188 154.443359375 299.787109375 178.189453125 282.966796875 c 0
 204.90234375 263.1796875 199.956054688 189.963867188 165.327148438 87.06640625 c 2
 137.624023438 4.947265625 l 1
 95.080078125 1.978515625 l 2
 31.7587890625 -2.9677734375 19.8857421875 11.873046875 26.8115234375 84.0986328125 c 0
 31.7587890625 143.462890625 66.3876953125 261.200195312 85.185546875 284.946289062 c 0
EndSplineSet
EndChar

StartChar: slash
Encoding: 47 47 67
Width: 654
VWidth: 0
Flags: HW
LayerCount: 2
Fore
SplineSet
534.522460938 807.62890625 m 4
 552.331054688 823.459960938 570.140625 829.395507812 594.875976562 827.416992188 c 4
 629.50390625 824.44921875 629.50390625 823.459960938 628.514648438 778.936523438 c 4
 628.514648438 736.392578125 619.610351562 722.541015625 485.052734375 541.481445312 c 4
 405.901367188 435.616210938 300.03515625 288.196289062 249.576171875 213.991210938 c 4
 112.05078125 11.1650390625 71.4853515625 -22.4736328125 34.876953125 32.9326171875 c 4
 13.1103515625 65.58203125 24.9833984375 94.2744140625 103.145507812 199.150390625 c 4
 134.806640625 241.694335938 225.831054688 373.284179688 304.982421875 491.022460938 c 4
 467.243164062 733.424804688 497.915039062 775.96875 534.522460938 807.62890625 c 4
EndSplineSet
EndChar

StartChar: hyphen
Encoding: 45 45 68
Width: 316
VWidth: 0
Flags: HW
LayerCount: 2
Fore
SplineSet
26.8828125 646.075195312 m 0
 30.8408203125 655.969726562 57.5537109375 659.926757812 135.716796875 661.90625 c 0
 193.1015625 662.895507812 251.475585938 660.916992188 265.327148438 656.958984375 c 0
 289.073242188 651.022460938 291.051757812 647.065429688 291.051757812 596.60546875 c 2
 291.051757812 541.19921875 l 1
 167.376953125 546.146484375 l 2
 99.1083984375 549.115234375 40.734375 553.072265625 37.7666015625 556.041015625 c 0
 29.8505859375 564.9453125 20.9462890625 631.234375 26.8828125 646.075195312 c 0
EndSplineSet
EndChar

StartChar: underscore
Encoding: 95 95 69
Width: 868
VWidth: 0
Flags: HW
LayerCount: 2
Fore
SplineSet
26.9326171875 278.020507812 m 0
 30.8896484375 282.966796875 196.119140625 286.924804688 438.520507812 286.924804688 c 2
 843.18359375 286.924804688 l 1
 843.18359375 237.455078125 l 1
 843.18359375 187.985351562 l 1
 438.520507812 187.985351562 l 1
 34.84765625 187.985351562 l 1
 27.921875 228.55078125 l 2
 23.9638671875 250.317382812 23.9638671875 272.083984375 26.9326171875 278.020507812 c 0
EndSplineSet
EndChar

StartChar: endash
Encoding: 8211 8211 70
Width: 516
VWidth: 0
Flags: HW
LayerCount: 2
Fore
SplineSet
62.3319463087 655.969530201 m 0
 181.059463087 661.90590604 304.733959732 662.895302013 335.405234899 656.958926174 c 0
 364.097718121 651.022550336 366.076510067 648.054362416 366.076510067 608.47852349 c 0
 366.076510067 555.05114094 363.108322148 554.061744966 186.006442953 554.061744966 c 0
 17.8091275168 554.061744966 0 559.998120805 0 612.436107383 c 2
 0 652.011946309 l 1
 62.3319463087 655.969530201 l 0
EndSplineSet
Validated: 33
EndChar

StartChar: emdash
Encoding: 8212 8212 71
Width: 615
VWidth: 0
Flags: HW
LayerCount: 2
Fore
SplineSet
47.4910067114 655.969530201 m 0
 73.2153020134 657.948322148 178.091275168 659.927114094 279.999060403 660.916510067 c 2
 466.005503356 662.895302013 l 1
 463.037315436 611.446711409 l 1
 460.069127517 559.008724832 l 1
 400.705369128 551.093557047 l 2
 329.46885906 541.199597315 60.3531543624 550.104161074 24.7348993289 563.955704698 c 0
 3.95758389262 571.870872483 0 579.786040268 0 612.436107383 c 2
 0 652.011946309 l 1
 47.4910067114 655.969530201 l 0
EndSplineSet
Validated: 33
EndChar

StartChar: ellipsis
Encoding: 8230 8230 72
Width: 268
VWidth: 0
Flags: HW
LayerCount: 2
Fore
SplineSet
39.5758389262 1038.86577181 m 0
 53.4273825503 1041.83395973 76.1834899329 1042.8233557 91.0244295302 1040.84456376 c 2
 118.727516779 1036.88697987 l 1
 118.727516779 940.91557047 l 2
 118.727516779 821.198657718 106.854765101 773.707651007 72.2259060403 760.845503356 c 0
 14.8409395973 739.078791946 -0.989395973154 770.739463087 0.989395973154 905.297315436 c 0
 2.96818791946 1006.2157047 9.89395973154 1031.94 39.5758389262 1038.86577181 c 0
EndSplineSet
Validated: 33
EndChar

StartChar: quotesingle
Encoding: 39 39 73
Width: 170
VWidth: 0
Flags: HW
LayerCount: 2
Fore
SplineSet
36.912109375 1045.79199219 m 0
 46.8056640625 1055.68554688 96.275390625 1054.69628906 132.883789062 1042.82324219 c 0
 141.788085938 1040.84472656 144.755859375 1008.19433594 144.755859375 927.064453125 c 0
 144.755859375 829.114257812 141.788085938 810.315429688 124.96875 789.538085938 c 0
 105.180664062 763.813476562 63.6259765625 749.961914062 38.890625 758.8671875 c 0
 22.0712890625 765.79296875 20.0927734375 1028.97167969 36.912109375 1045.79199219 c 0
EndSplineSet
EndChar

StartChar: numbersign
Encoding: 35 35 74
Width: 882
VWidth: 0
Flags: HW
LayerCount: 2
Fore
SplineSet
369.268554688 842.045898438 m 4
 376.194335938 853.918945312 414.78125 839.078125 434.569335938 817.311523438 c 4
 455.346679688 793.565429688 455.346679688 761.905273438 436.547851562 691.658203125 c 4
 428.6328125 661.975585938 424.674804688 634.272460938 427.643554688 629.326171875 c 4
 435.55859375 616.463867188 524.603515625 619.431640625 538.455078125 633.283203125 c 4
 545.380859375 640.208984375 550.328125 651.092773438 550.328125 658.018554688 c 4
 550.328125 665.93359375 564.1796875 707.48828125 581 750.032226562 c 6
 610.681640625 829.18359375 l 5
 649.267578125 829.18359375 l 6
 696.758789062 829.18359375 702.6953125 815.33203125 683.896484375 737.169921875 c 4
 675.981445312 703.530273438 669.055664062 663.955078125 669.055664062 649.114257812 c 4
 669.055664062 623.389648438 670.044921875 623.389648438 763.048828125 616.463867188 c 6
 857.041015625 609.538085938 l 5
 857.041015625 566.004882812 l 5
 857.041015625 522.470703125 l 5
 759.090820312 522.470703125 l 6
 692.80078125 522.470703125 658.172851562 518.513671875 652.236328125 510.598632812 c 4
 642.341796875 497.736328125 619.5859375 403.743164062 619.5859375 378.01953125 c 4
 619.5859375 367.135742188 636.405273438 364.16796875 691.811523438 363.178710938 c 4
 793.719726562 362.189453125 812.518554688 354.2734375 810.5390625 319.64453125 c 4
 806.58203125 272.154296875 787.783203125 262.259765625 681.91796875 256.323242188 c 6
 584.95703125 250.387695312 l 5
 555.275390625 151.447265625 l 6
 512.731445312 9.9638671875 515.69921875 15.900390625 479.091796875 19.8583984375 c 4
 448.420898438 22.826171875 446.44140625 25.7939453125 443.473632812 62.40234375 c 4
 442.484375 84.1689453125 447.430664062 136.606445312 454.356445312 179.150390625 c 4
 470.1875 270.174804688 472.166015625 267.20703125 381.141601562 263.249023438 c 6
 318.809570312 260.28125 l 5
 306.936523438 191.0234375 l 6
 290.1171875 99.009765625 273.297851562 44.5927734375 259.446289062 35.6884765625 c 4
 238.668945312 21.8369140625 194.145507812 26.7841796875 187.219726562 43.603515625 c 4
 184.251953125 52.5078125 187.219726562 104.946289062 195.134765625 160.352539062 c 4
 202.060546875 214.768554688 208.986328125 265.228515625 208.986328125 270.174804688 c 4
 208.986328125 276.111328125 189.198242188 280.069335938 164.463867188 280.069335938 c 4
 139.728515625 281.05859375 98.173828125 282.047851562 72.4501953125 283.037109375 c 6
 24.958984375 285.015625 l 5
 27.9267578125 327.560546875 l 5
 30.8955078125 369.115234375 l 5
 126.8671875 374.061523438 l 6
 179.3046875 377.030273438 224.817382812 380.987304688 226.795898438 383.956054688 c 4
 233.721679688 390.881835938 263.403320312 492.7890625 263.403320312 508.619140625 c 4
 263.403320312 515.544921875 234.7109375 522.470703125 182.272460938 526.428710938 c 4
 66.513671875 536.322265625 65.5244140625 536.322265625 65.5244140625 582.82421875 c 6
 65.5244140625 621.411132812 l 5
 173.368164062 621.411132812 l 6
 247.573242188 621.411132812 284.180664062 625.368164062 290.1171875 634.272460938 c 4
 296.053710938 640.208984375 314.8515625 688.689453125 332.661132812 740.138671875 c 4
 350.470703125 791.586914062 366.30078125 838.088867188 369.268554688 842.045898438 c 4
504.81640625 513.56640625 m 4
 413.791992188 524.450195312 392.024414062 516.53515625 376.194335938 463.107421875 c 4
 352.44921875 385.934570312 354.427734375 383.956054688 425.6640625 383.956054688 c 4
 461.282226562 383.956054688 492.943359375 388.90234375 495.911132812 393.849609375 c 4
 506.794921875 411.659179688 513.720703125 512.577148438 504.81640625 513.56640625 c 4
EndSplineSet
EndChar

StartChar: percent
Encoding: 37 37 75
Width: 692
VWidth: 0
Flags: HW
LayerCount: 2
Fore
SplineSet
534.493164062 628.548828125 m 0
 580.005859375 676.040039062 583.962890625 678.018554688 609.6875 654.272460938 c 0
 636.401367188 629.538085938 631.454101562 600.845703125 586.931640625 532.577148438 c 0
 543.397460938 465.297851562 142.692382812 48.7626953125 108.063476562 33.921875 c 0
 93.22265625 27.9853515625 79.37109375 29.9638671875 60.572265625 42.826171875 c 0
 45.7314453125 51.73046875 33.8583984375 62.6142578125 33.8583984375 66.5712890625 c 0
 33.8583984375 69.5400390625 92.2333984375 134.83984375 162.48046875 211.0234375 c 0
 232.727539062 287.20703125 336.614257812 402.966796875 392.020507812 467.27734375 c 0
 448.416015625 532.577148438 512.7265625 604.802734375 534.493164062 628.548828125 c 0
73.4345703125 648.336914062 m 0
 132.798828125 678.018554688 252.515625 650.315429688 286.155273438 597.876953125 c 0
 326.719726562 536.53515625 312.868164062 462.330078125 251.526367188 410.881835938 c 0
 206.013671875 372.294921875 158.522460938 362.401367188 112.021484375 381.19921875 c 0
 51.66796875 404.9453125 23.96484375 444.520507812 24.9541015625 505.86328125 c 0
 25.943359375 579.079101562 44.7421875 633.495117188 73.4345703125 648.336914062 c 0
186.225585938 570.173828125 m 0
 155.5546875 585.015625 150.607421875 585.015625 129.830078125 570.173828125 c 0
 101.137695312 547.41796875 99.1591796875 508.83203125 125.873046875 478.16015625 c 0
 155.5546875 442.541992188 194.140625 449.467773438 211.950195312 492.01171875 c 0
 226.791015625 529.609375 217.88671875 556.322265625 186.225585938 570.173828125 c 0
432.584960938 295.122070312 m 0
 492.938476562 322.825195312 536.471679688 319.857421875 589.899414062 285.228515625 c 0
 652.231445312 243.673828125 667.072265625 217.94921875 667.072265625 149.680664062 c 0
 667.072265625 78.4443359375 652.231445312 54.69921875 592.8671875 32.9326171875 c 0
 539.440429688 12.1552734375 488.981445312 17.1015625 424.669921875 48.7626953125 c 0
 364.317382812 78.4443359375 350.465820312 100.2109375 350.465820312 161.553710938 c 0
 350.465820312 225.864257812 378.168945312 270.387695312 432.584960938 295.122070312 c 0
573.080078125 173.426757812 m 0
 553.291992188 202.119140625 514.705078125 207.065429688 479.086914062 185.298828125 c 0
 443.46875 163.532226562 441.490234375 143.744140625 471.171875 122.966796875 c 0
 502.833007812 100.2109375 541.418945312 103.1796875 566.154296875 129.892578125 c 0
 585.94140625 150.669921875 585.94140625 154.627929688 573.080078125 173.426757812 c 0
EndSplineSet
EndChar

StartChar: ampersand
Encoding: 38 38 76
Width: 561
VWidth: 0
Flags: HW
LayerCount: 2
Fore
SplineSet
130.185546875 625.505859375 m 4
 179.655273438 652.219726562 251.881835938 650.241210938 303.330078125 619.569335938 c 4
 350.821289062 591.8671875 358.736328125 579.994140625 346.86328125 548.333007812 c 4
 335.98046875 518.651367188 297.393554688 518.651367188 259.796875 546.354492188 c 4
 225.16796875 572.079101562 202.412109375 568.12109375 177.676757812 534.481445312 c 4
 143.047851562 488.969726562 178.666015625 446.42578125 248.913085938 446.42578125 c 4
 292.447265625 446.42578125 308.27734375 436.53125 308.27734375 409.817382812 c 4
 308.27734375 365.294921875 292.447265625 350.454101562 238.030273438 343.528320312 c 4
 144.037109375 330.666015625 110.397460938 299.995117188 110.397460938 224.80078125 c 4
 110.397460938 160.490234375 176.6875 110.03125 258.807617188 110.03125 c 4
 320.149414062 110.03125 337.958984375 123.8828125 337.958984375 170.383789062 c 4
 337.958984375 214.907226562 325.096679688 224.80078125 285.521484375 209.959960938 c 4
 248.913085938 196.108398438 213.294921875 210.94921875 205.379882812 243.599609375 c 4
 192.517578125 294.05859375 206.369140625 298.015625 378.524414062 298.015625 c 6
 535.837890625 298.015625 l 5
 535.837890625 269.323242188 l 6
 535.837890625 239.641601562 518.029296875 219.853515625 458.665039062 188.193359375 c 4
 437.887695312 176.3203125 427.994140625 161.479492188 422.057617188 133.776367188 c 4
 411.174804688 73.4228515625 389.407226562 40.7734375 349.83203125 23.953125 c 4
 230.115234375 -26.505859375 65.875 51.65625 31.24609375 174.341796875 c 4
 12.447265625 241.620117188 39.1611328125 348.475585938 84.673828125 386.072265625 c 4
 102.482421875 400.913085938 106.440429688 426.637695312 90.6103515625 426.637695312 c 4
 75.76953125 426.637695312 51.0341796875 481.0546875 51.0341796875 513.704101562 c 4
 51.0341796875 551.301757812 87.6416015625 603.739257812 130.185546875 625.505859375 c 4
427.004882812 234.694335938 m 4
 427.004882812 242.610351562 422.057617188 248.545898438 417.110351562 248.545898438 c 4
 405.23828125 248.545898438 392.375976562 220.842773438 400.291015625 212.927734375 c 4
 409.1953125 204.0234375 427.004882812 218.864257812 427.004882812 234.694335938 c 4
EndSplineSet
EndChar

StartChar: asterisk
Encoding: 42 42 77
Width: 416
VWidth: 0
Flags: HW
LayerCount: 2
Fore
SplineSet
180.185546875 1056.67480469 m 0
 189.090820312 1062.61132812 205.91015625 1063.60058594 216.793945312 1058.65332031 c 0
 233.61328125 1052.71777344 238.560546875 1040.84472656 242.517578125 993.353515625 c 0
 245.486328125 961.693359375 252.412109375 935.96875 257.358398438 936.958007812 c 0
 263.294921875 937.947265625 285.061523438 945.862304688 306.828125 953.77734375 c 0
 328.595703125 961.693359375 356.297851562 968.619140625 369.16015625 969.608398438 c 0
 389.9375 969.608398438 391.916992188 965.650390625 388.948242188 923.106445312 c 0
 385.98046875 878.583984375 383.01171875 874.625976562 347.393554688 857.806640625 c 2
 308.807617188 839.0078125 l 1
 349.372070312 815.262695312 l 2
 384.991210938 793.495117188 390.926757812 785.580078125 390.926757812 756.887695312 c 0
 390.926757812 711.375976562 359.266601562 702.470703125 308.807617188 732.153320312 c 2
 272.19921875 753.919921875 l 1
 272.19921875 722.258789062 l 2
 272.19921875 684.662109375 249.443359375 638.16015625 226.6875 629.255859375 c 0
 200.962890625 619.362304688 181.174804688 645.0859375 176.228515625 696.53515625 c 0
 170.291992188 747.983398438 157.4296875 752.930664062 100.044921875 726.216796875 c 0
 81.24609375 717.3125 59.4794921875 712.365234375 50.5751953125 715.333007812 c 0
 10.9990234375 730.173828125 18.9140625 788.548828125 64.4267578125 814.272460938 c 0
 103.012695312 838.018554688 102.0234375 853.848632812 58.490234375 880.5625 c 0
 28.80859375 899.361328125 23.861328125 907.276367188 26.8291015625 933.990234375 c 0
 29.7978515625 962.682617188 31.7763671875 964.661132812 69.373046875 963.671875 c 0
 91.140625 963.671875 120.822265625 959.713867188 136.65234375 955.756835938 c 0
 163.366210938 947.841796875 163.366210938 947.841796875 163.366210938 997.311523438 c 0
 163.366210938 1034.90820312 168.313476562 1050.73828125 180.185546875 1056.67480469 c 0
EndSplineSet
EndChar

StartChar: dollar
Encoding: 36 36 78
Width: 564
VWidth: 0
Flags: HW
LayerCount: 2
Fore
SplineSet
262.086914062 872.045898438 m 4
 298.6953125 884.908203125 316.50390625 872.045898438 330.35546875 822.576171875 c 4
 337.28125 796.8515625 341.239257812 794.873046875 391.698242188 794.873046875 c 4
 439.189453125 794.873046875 446.115234375 791.905273438 457.987304688 768.159179688 c 4
 482.72265625 715.721679688 456.008789062 676.145507812 385.76171875 661.3046875 c 6
 356.080078125 655.368164062 l 5
 356.080078125 582.153320312 l 5
 356.080078125 507.948242188 l 5
 410.497070312 479.255859375 l 6
 527.245117188 418.90234375 539.118164062 408.01953125 539.118164062 363.49609375 c 4
 539.118164062 316.005859375 513.393554688 287.313476562 419.401367188 228.938476562 c 6
 361.02734375 193.3203125 l 5
 361.02734375 139.892578125 l 6
 361.02734375 77.5615234375 341.239257812 33.0380859375 310.567382812 25.123046875 c 4
 277.91796875 16.21875 255.161132812 33.0380859375 245.267578125 74.5927734375 c 6
 236.36328125 112.189453125 l 5
 176.009765625 109.221679688 l 6
 109.720703125 105.264648438 83.99609375 120.10546875 83.99609375 160.669921875 c 4
 83.99609375 190.352539062 113.677734375 216.076171875 176.009765625 240.811523438 c 6
 227.458984375 261.588867188 l 5
 227.458984375 349.64453125 l 5
 227.458984375 436.711914062 l 5
 166.116210938 458.478515625 l 6
 93.8896484375 485.192382812 38.4833984375 516.852539062 30.568359375 538.619140625 c 4
 18.6962890625 569.291015625 25.6220703125 600.951171875 49.3671875 629.643554688 c 4
 78.0595703125 663.283203125 165.126953125 710.774414062 199.755859375 710.774414062 c 4
 221.522460938 710.774414062 222.51171875 714.732421875 222.51171875 773.106445312 c 4
 222.51171875 835.438476562 233.39453125 862.15234375 262.086914062 872.045898438 c 4
230.426757812 565.333007812 m 4
 224.490234375 581.1640625 196.787109375 586.110351562 187.8828125 572.258789062 c 4
 183.924804688 565.333007812 184.9140625 556.428710938 190.850585938 550.4921875 c 4
 204.702148438 536.640625 235.374023438 548.513671875 230.426757812 565.333007812 c 4
394.666015625 368.443359375 m 4
 387.740234375 387.2421875 361.02734375 389.220703125 361.02734375 372.401367188 c 4
 361.02734375 365.475585938 358.05859375 349.64453125 355.090820312 337.772460938 c 4
 350.143554688 320.952148438 353.111328125 315.015625 363.995117188 315.015625 c 4
 383.783203125 315.015625 402.58203125 347.666015625 394.666015625 368.443359375 c 4
EndSplineSet
EndChar

StartChar: A
Encoding: 65 65 79
Width: 789
VWidth: 0
Flags: HW
LayerCount: 2
Fore
SplineSet
293.0546875 829.114257812 m 0
 325.705078125 876.604492188 356.376953125 883.530273438 401.888671875 852.859375 c 0
 501.817382812 787.559570312 671.004882812 447.20703125 740.26171875 171.165039062 c 0
 779.837890625 14.8408203125 775.880859375 3.9580078125 680.8984375 11.873046875 c 2
 642.311523438 14.8408203125 l 1
 612.629882812 106.854492188 l 2
 589.874023438 179.081054688 578.990234375 199.858398438 562.170898438 203.815429688 c 0
 526.552734375 212.719726562 359.344726562 213.709960938 290.086914062 204.8046875 c 2
 223.797851562 196.889648438 l 1
 197.083984375 120.706054688 l 2
 182.243164062 79.1513671875 163.444335938 36.607421875 154.540039062 27.703125 c 0
 135.741210938 4.947265625 104.080078125 4.947265625 58.568359375 26.7138671875 c 0
 12.06640625 48.48046875 13.0556640625 64.310546875 67.47265625 256.25390625 c 0
 151.571289062 550.104492188 218.850585938 720.280273438 293.0546875 829.114257812 c 0
480.05078125 470.952148438 m 0
 454.327148438 530.31640625 420.6875 598.584960938 406.8359375 622.330078125 c 2
 381.111328125 666.852539062 l 1
 355.38671875 607.489257812 l 2
 299.98046875 483.814453125 251.500976562 363.108398438 255.458007812 359.150390625 c 0
 261.39453125 353.21484375 517.6484375 351.235351562 523.583984375 358.161132812 c 0
 526.552734375 361.129882812 506.764648438 411.588867188 480.05078125 470.952148438 c 0
EndSplineSet
EndChar

StartChar: f
Encoding: 102 102 80
Width: 543
VWidth: 0
Flags: HW
LayerCount: 2
Fore
SplineSet
280.454101562 1017.12207031 m 0
 317.061523438 1023.05859375 380.3828125 1013.16503906 411.053710938 998.32421875 c 0
 460.524414062 972.599609375 517.909179688 875.638671875 517.909179688 815.286132812 c 0
 517.909179688 781.646484375 486.248046875 756.911132812 443.704101562 756.911132812 c 0
 406.107421875 756.911132812 396.212890625 763.836914062 375.435546875 803.413085938 c 0
 357.626953125 840.020507812 332.891601562 855.850585938 297.2734375 855.850585938 c 0
 272.5390625 855.850585938 272.5390625 855.850585938 277.485351562 774.720703125 c 0
 279.46484375 729.208007812 283.421875 686.6640625 285.400390625 680.727539062 c 0
 288.369140625 671.823242188 312.114257812 667.866210938 358.616210938 667.866210938 c 0
 449.640625 667.866210938 473.385742188 650.056640625 463.4921875 590.693359375 c 0
 454.587890625 534.296875 429.852539062 519.456054688 350.701171875 519.456054688 c 2
 287.379882812 519.456054688 l 1
 294.305664062 443.272460938 l 2
 297.2734375 400.728515625 303.209960938 291.895507812 307.16796875 201.860351562 c 2
 313.103515625 37.6201171875 l 1
 289.358398438 21.7900390625 l 2
 276.49609375 11.896484375 249.782226562 4.970703125 229.004882812 4.970703125 c 0
 170.630859375 4.970703125 164.694335938 21.7900390625 157.768554688 227.584960938 c 0
 153.811523438 325.53515625 147.875 429.420898438 144.90625 458.114257812 c 2
 138.970703125 509.5625 l 1
 97.416015625 509.5625 l 2
 47.9462890625 509.5625 36.0732421875 520.4453125 27.1689453125 576.841796875 c 0
 19.2529296875 630.268554688 33.1044921875 648.078125 83.564453125 648.078125 c 0
 105.331054688 648.078125 122.150390625 651.045898438 122.150390625 655.993164062 c 0
 123.139648438 659.950195312 125.119140625 701.504882812 127.09765625 748.006835938 c 0
 132.044921875 843.978515625 160.737304688 949.84375 191.408203125 982.494140625 c 0
 211.196289062 1003.27148438 226.037109375 1009.20703125 280.454101562 1017.12207031 c 0
EndSplineSet
EndChar

StartChar: d
Encoding: 100 100 81
Width: 562
VWidth: 0
Flags: HW
LayerCount: 2
Fore
SplineSet
391.19921875 959.291992188 m 4
 406.040039062 977.1015625 482.223632812 976.112304688 498.053710938 957.313476562 c 4
 524.767578125 924.663085938 552.470703125 47.0693359375 526.74609375 31.2392578125 c 4
 504.979492188 17.3876953125 362.506835938 21.3447265625 286.323242188 37.1748046875 c 4
 205.192382812 53.9951171875 148.796875 85.6552734375 98.337890625 142.05078125 c 4
 49.857421875 194.489257812 33.037109375 237.033203125 26.111328125 319.153320312 c 4
 15.228515625 452.721679688 86.46484375 592.2265625 194.30859375 646.643554688 c 4
 230.916992188 665.44140625 318.97265625 675.3359375 359.538085938 664.452148438 c 4
 372.400390625 661.484375 374.37890625 682.26171875 377.34765625 802.967773438 c 4
 378.336914062 888.055664062 384.2734375 951.376953125 391.19921875 959.291992188 c 4
370.421875 501.202148438 m 4
 367.453125 503.180664062 348.655273438 508.127929688 329.856445312 511.095703125 c 4
 214.096679688 530.883789062 130.987304688 375.548828125 196.288085938 263.747070312 c 4
 225.969726562 213.288085938 308.08984375 167.775390625 361.516601562 172.72265625 c 6
 394.166992188 175.690429688 l 5
 393.177734375 230.107421875 l 6
 392.188476562 315.1953125 377.34765625 497.244140625 370.421875 501.202148438 c 4
EndSplineSet
EndChar

StartChar: e
Encoding: 101 101 82
Width: 581
VWidth: 0
Flags: HW
LayerCount: 2
Fore
SplineSet
174.2890625 685.26171875 m 0
 206.938476562 704.059570312 303.899414062 701.091796875 346.443359375 679.325195312 c 0
 422.626953125 640.73828125 486.9375 551.693359375 486.9375 485.403320312 c 0
 486.9375 390.420898438 382.061523438 289.502929688 247.50390625 252.895507812 c 0
 171.3203125 232.118164062 190.119140625 185.616210938 282.1328125 165.828125 c 0
 335.560546875 154.9453125 383.051757812 162.860351562 442.415039062 193.53125 c 0
 490.895507812 218.266601562 497.821289062 218.266601562 530.471679688 192.541992188 c 0
 550.259765625 176.711914062 556.1953125 163.849609375 556.1953125 133.178710938 c 0
 556.1953125 79.7509765625 526.513671875 52.0478515625 442.415039062 26.3232421875 c 0
 274.217773438 -26.1142578125 129.765625 25.333984375 66.4443359375 158.90234375 c 0
 28.84765625 239.043945312 15.9853515625 334.025390625 30.826171875 419.114257812 c 0
 50.6142578125 529.92578125 116.904296875 652.611328125 174.2890625 685.26171875 c 0
300.931640625 523 m 0
 281.143554688 540.809570312 252.451171875 544.767578125 232.663085938 531.905273438 c 0
 208.91796875 517.064453125 164.39453125 391.411132812 183.193359375 391.411132812 c 0
 194.077148438 391.411132812 294.005859375 431.975585938 304.888671875 441.870117188 c 0
 324.676757812 457.700195312 321.708984375 504.202148438 300.931640625 523 c 0
EndSplineSet
EndChar
